<svg version="1.1" id="Layer_1" xmlns="http://www.w3.org/2000/svg" x="0" y="0" viewBox="0 0 30.4 30.39" xml:space="preserve"><style>.st0{fill:#fff}</style><path class="st0" d="M15.2 4.05C8.78 4.05 3.55 9.28 3.55 15.7S8.77 27.36 15.2 27.36s11.65-5.23 11.65-11.65S21.62 4.05 15.2 4.05zm0 22.29c-5.87 0-10.64-4.77-10.64-10.64S9.33 5.07 15.2 5.07c5.87 0 10.64 4.77 10.64 10.64S21.07 26.34 15.2 26.34z"/><path class="st0" d="M20.09 5.13c-.05-.02-.1-.04-.15-.04l-.12-.02a.5.5 0 00-.47.19c-.11.14-.14.34-.07.5.35.83.76 2.51.23 2.9l-1.17.47a2.64 2.64 0 00-1.63 2.13l-.01.06a.31.31 0 01-.26.27.357.357 0 01-.39-.17l-.5-.84a.963.963 0 00-1.7.08c-.45.97-1.02 2.36-1.16 3.51-.04.36.02.72.18 1.05l.58 1.17c.21.41.52.76.92 1.01.36.23 1.04.69 1.47 1.21a3.1 3.1 0 001.85 1.09c-.03.95.03 2.51.68 3.2.23.24.51.37.82.38.06.01.16.02.29.02.38 0 1-.09 1.58-.56.8-.66 1.21-1.82 1.22-3.45l.73-3.27.28.46c.22.37.6.64 1.03.72.43.08.87-.02 1.22-.28l1.11-.83c.13-.1.2-.25.2-.41 0-4.5-2.65-8.65-6.76-10.55zm4.84 11c-.12.09-.27.12-.42.1a.528.528 0 01-.35-.25l-.53-.88a.816.816 0 00-1.5.24l-.84 3.79c-.01.04-.01.07-.01.11 0 1.32-.29 2.26-.84 2.72-.5.42-1.07.33-1.09.33-.07-.01-.11.04-.22-.07-.32-.34-.48-1.51-.39-2.86a.602.602 0 00-.59-.63c-.57 0-1.12-.28-1.52-.75-.49-.6-1.2-1.1-1.71-1.42a1.47 1.47 0 01-.55-.61l-.58-1.17a.855.855 0 01-.08-.47c.12-1.04.68-2.37 1.03-3.13l.46.77c.3.51.88.76 1.46.64.57-.12.98-.56 1.06-1.13l.01-.08c.07-.59.45-1.09 1-1.31l1.22-.49c.03-.01.05-.02.07-.04.96-.58.84-1.98.59-3.01 3.14 1.86 5.14 5.23 5.23 8.91l-.91.69zm-12.12 6.6l-.31-.31c-.37-.37-.81-.67-1.29-.87l-1.56-.67c-.63-.27-1.04-.89-1.04-1.57v-.76c0-.47-.23-.9-.61-1.17a1.39 1.39 0 00-1.31-.16l-2.43.91c-.24.09-.38.35-.31.61 1.14 4.25 4.66 7.54 8.97 8.4a.522.522 0 00.59-.36l.19-.65c.33-1.21 0-2.51-.89-3.4zm-.09 3.12l-.05.19c-3.58-.88-6.49-3.61-7.61-7.13l1.99-.75c.13-.05.27-.03.38.05.11.08.18.2.18.34v.76c0 1.09.65 2.07 1.65 2.5l1.56.67c.37.16.69.38.97.66l.31.31c.62.63.86 1.54.62 2.4zM9.89 5.81a.51.51 0 00-.65-.12c-3.35 2-5.47 5.51-5.67 9.39-.01.17.07.34.21.44.09.06.19.1.3.1.06 0 .12-.01.18-.03l3.14-1.24c.75-.3 1.14-1.14.89-1.91a.52.52 0 01.13-.53l1.46-1.46c.5-.5.77-1.16.77-1.87v-.67c-.01-.76-.28-1.5-.76-2.1zm-.26 2.76c0 .43-.17.84-.48 1.15l-1.46 1.46c-.41.41-.55 1.01-.37 1.57.09.26-.05.55-.3.65l-2.37.94c.39-3.06 2.1-5.81 4.7-7.52.18.34.28.71.28 1.09v.66zM15.2 0c-.52 0-1.05.03-1.57.08a.507.507 0 00.05 1.01h.05c.48-.05.98-.07 1.47-.07.28 0 .51-.23.51-.51S15.48 0 15.2 0zM1.21 17.58c-.13-.78-.2-1.58-.2-2.38 0-.17 0-.34.01-.51a.504.504 0 00-.49-.52.504.504 0 00-.52.49c-.01.18-.01.36-.01.54 0 .86.07 1.72.21 2.55.04.25.26.42.5.42.03 0 .06 0 .09-.01.27-.04.46-.3.41-.58zm2.1 5.37c-.53-.81-.98-1.68-1.33-2.57-.1-.26-.4-.39-.66-.29-.26.1-.39.4-.29.66.38.96.86 1.89 1.42 2.76a.506.506 0 00.7.15c.25-.16.32-.48.16-.71zM2.15 8.42a.519.519 0 00-.68.24c-.45.93-.8 1.92-1.04 2.92a.5.5 0 00.37.61c.04.01.08.01.12.01.23 0 .44-.16.49-.39.23-.94.56-1.86.97-2.73.13-.24.02-.54-.23-.66zm3.77-4.63a.505.505 0 00-.71-.05c-.78.69-1.49 1.45-2.12 2.27a.5.5 0 00.1.71c.09.07.2.1.31.1.15 0 .3-.07.4-.2.58-.77 1.25-1.48 1.98-2.12.21-.18.23-.5.04-.71zm6.81 25.38c-.95-.17-1.89-.43-2.78-.79-.26-.1-.55.02-.66.28-.1.26.02.55.28.66.96.38 1.96.67 2.98.85.03.01.06.01.09.01.24 0 .46-.17.5-.42a.51.51 0 00-.41-.59zm6.37.21a.514.514 0 00-.61-.38c-.94.22-1.9.35-2.87.38-.28.01-.5.24-.49.52.01.27.23.49.51.49h.02c1.04-.03 2.07-.17 3.08-.4.25-.07.42-.34.36-.61zM11.22 1.04a.509.509 0 00-.64-.33c-.98.32-1.94.73-2.84 1.24-.24.14-.33.45-.19.69.09.17.26.26.44.26.08 0 .17-.02.25-.07.84-.48 1.74-.86 2.65-1.16a.49.49 0 00.33-.63zM7.38 27.03c-.8-.53-1.56-1.15-2.24-1.84-.2-.2-.52-.2-.72 0-.2.2-.2.52 0 .72.73.73 1.54 1.4 2.4 1.97.08.06.18.08.28.08.16 0 .33-.08.42-.23.15-.23.09-.54-.14-.7zm15.85.48a.507.507 0 00-.7-.17c-.42.25-.85.49-1.29.69a.504.504 0 00.22.96c.07 0 .15-.02.22-.05.47-.22.94-.47 1.38-.74.24-.14.32-.45.17-.69zm7.06-5.02a.508.508 0 00-.71-.09l-4.56 3.55c-.12.1-.2.24-.2.4v1.52c0 .28.23.51.51.51s.51-.23.51-.51V26.6l4.36-3.39c.22-.18.26-.5.09-.72z"/><path class="st0" d="M25.49 25.86l-1.52-.51a.507.507 0 00-.64.32.5.5 0 00.32.64l1.52.51c.05.02.11.03.16.03a.5.5 0 00.48-.35.503.503 0 00-.32-.64zm3.86.8l-1.01-2.53a.51.51 0 00-.21-.25l-2.53-1.52a.516.516 0 00-.7.17c-.14.24-.07.55.17.7l2.39 1.43.95 2.38c.08.2.27.32.47.32.06 0 .13-.01.19-.04.26-.1.38-.4.28-.66z"/></svg>