<svg version="1.1" id="Capa_1" xmlns="http://www.w3.org/2000/svg" x="0" y="0" viewBox="0 0 43.3 35.4" xml:space="preserve"><style>.st0{fill:#1b1514}</style><path class="st0" d="M72 18.4c-2.7-1.4-4.5-4.2-4.5-7.3 0-.7-.6-1.4-1.3-1.4V7.1c.7 0 1.3-.6 1.3-1.4V3c0-4.5 3.5-8.1 7.8-8.1s7.8 3.6 7.8 8.1v2.7c0 .7.6 1.4 1.3 1.4v2.7H87V7.1c0-1-.5-1.9-1.3-2.3V3c0-6-4.7-10.8-10.4-10.8S64.9-3 64.9 3v1.7c-.8.5-1.3 1.3-1.3 2.3v2.7c0 1 .5 1.9 1.4 2.4.3 3.4 2.3 6.6 5.2 8.3v1.9L60.7 26c-1.2.3-6.1 1.8-6.1 5.4v2.7c0 .7.6 1.4 1.3 1.4h16.9v-2.7H57.1v-1.4c0-1.1 2.5-2.3 4.2-2.7h.1l10.4-4.1c.5-.2.8-.7.8-1.3v-3.6c.2-.6-.1-1-.6-1.3z"/><path class="st0" d="M93.6 26v4.1H78V16.5h3.9v-2.7H78c-1.4 0-2.6 1.2-2.6 2.7V30c0 1.5 1.2 2.7 2.6 2.7h15.6c1.4 0 2.6-1.2 2.6-2.7v-4h-2.6z"/><path class="st0" d="M81.5 21l-1.8 1.9 3.9 4.1c.3.3.6.4.9.4s.7-.1.9-.4l9.1-9.5-1.8-1.9-8.2 8.5-3-3.1zM37.9 35.4H5.4c-3 0-5.4-2-5.4-4.4V13.3c0-2.4 2.4-4.4 5.4-4.4h2.7c.7 0 1.4.5 1.4 1.1 0 .6-.6 1.1-1.4 1.1H5.4c-1.5 0-2.7 1-2.7 2.2V31c0 1.2 1.2 2.2 2.7 2.2h32.5c1.5 0 2.7-1 2.7-2.2V13.3c0-1.2-1.2-2.2-2.7-2.2h-2.7c-.7 0-1.4-.5-1.4-1.1 0-.6.6-1.1 1.4-1.1h2.7c3 0 5.4 2 5.4 4.4V31c0 2.4-2.4 4.4-5.4 4.4z"/><path class="st0" d="M21.7 24.4c-.3 0-.6-.1-.8-.2l-19-12.3c-.6-.4-.7-1.1-.2-1.6.4-.4 1.3-.5 1.8-.1l18.1 11.6 18.1-11.6c.6-.4 1.4-.3 1.9.2s.4 1.2-.2 1.6L22.5 24.1c-.3.2-.6.3-.8.3z"/><path class="st0" d="M2.7 34.3c-.3 0-.7-.1-1-.3-.5-.4-.5-1.1 0-1.6l14.9-12.2c.5-.4 1.4-.4 1.9 0s.5 1.1 0 1.6L3.7 34c-.3.2-.6.3-1 .3zm37.9 0c-.3 0-.7-.1-1-.3L24.8 21.8c-.5-.4-.5-1.1 0-1.6.5-.4 1.4-.4 1.9 0l14.9 12.2c.5.4.5 1.1 0 1.6-.3.2-.7.3-1 .3zm-5.4-18.8c-.7 0-1.4-.5-1.4-1.1V2.2H9.5v12.2c0 .6-.6 1.1-1.4 1.1s-1.3-.5-1.3-1.1V2.2C6.8 1 8 0 9.5 0h24.4c1.5 0 2.7 1 2.7 2.2v12.2c-.1.6-.7 1.1-1.4 1.1z"/><path class="st0" d="M28.4 7.7H14.9c-.7 0-1.4-.5-1.4-1.1s.6-1.1 1.4-1.1h13.5c.7 0 1.4.5 1.4 1.1s-.6 1.1-1.4 1.1zm.1 5.6H14.9c-.7 0-1.4-.5-1.4-1.1 0-.6.6-1.1 1.4-1.1h13.6c.7 0 1.4.5 1.4 1.1 0 .6-.6 1.1-1.4 1.1z"/></svg>