<svg version="1.1" id="Capa_1" xmlns="http://www.w3.org/2000/svg" x="0" y="0" viewBox="0 0 37 41.8" xml:space="preserve"><style>.st0{fill:#1b1514}.st1{fill:#1a1414}</style><path class="st0" d="M-120.9 18.4c-2.7-1.4-4.5-4.2-4.5-7.3 0-.7-.6-1.4-1.3-1.4V7.1c.7 0 1.3-.6 1.3-1.4V3c0-4.5 3.5-8.1 7.8-8.1s7.8 3.6 7.8 8.1v2.7c0 .7.6 1.4 1.3 1.4v2.7h2.6V7.1c0-1-.5-1.9-1.3-2.3V3c0-6-4.7-10.8-10.4-10.8S-128-3-128 3v1.7c-.8.5-1.3 1.3-1.3 2.3v2.7c0 1 .5 1.9 1.4 2.4.3 3.4 2.3 6.6 5.2 8.3v1.9l-9.5 3.7c-1.2.3-6.1 1.8-6.1 5.4v2.7c0 .7.6 1.4 1.3 1.4h16.9v-2.7h-15.6v-1.4c0-1.1 2.5-2.3 4.2-2.7h.1l10.4-4.1c.5-.2.8-.7.8-1.3v-3.6c.1-.6-.2-1-.7-1.3z"/><path class="st0" d="M-99.3 26v4.1h-15.6V16.5h3.9v-2.7h-3.9c-1.4 0-2.6 1.2-2.6 2.7V30c0 1.5 1.2 2.7 2.6 2.7h15.6c1.4 0 2.6-1.2 2.6-2.7v-4h-2.6z"/><path class="st0" d="M-111.4 21l-1.8 1.9 3.9 4.1c.3.3.6.4.9.4s.7-.1.9-.4l9.1-9.5-1.8-1.9-8.2 8.5-3-3.1zM-155 35.4h-32.5c-3 0-5.4-2-5.4-4.4V13.3c0-2.4 2.4-4.4 5.4-4.4h2.7c.7 0 1.4.5 1.4 1.1 0 .6-.6 1.1-1.4 1.1h-2.7c-1.5 0-2.7 1-2.7 2.2V31c0 1.2 1.2 2.2 2.7 2.2h32.5c1.5 0 2.7-1 2.7-2.2V13.3c0-1.2-1.2-2.2-2.7-2.2h-2.7c-.7 0-1.4-.5-1.4-1.1 0-.6.6-1.1 1.4-1.1h2.7c3 0 5.4 2 5.4 4.4V31c0 2.4-2.4 4.4-5.4 4.4z"/><path class="st0" d="M-171.3 24.4c-.3 0-.6-.1-.8-.2L-191 11.9c-.6-.4-.7-1.1-.2-1.6.5-.5 1.3-.6 1.9-.2l18.1 11.6 18.1-11.6c.6-.4 1.4-.3 1.9.2s.4 1.2-.2 1.6l-18.9 12.2c-.4.2-.7.3-1 .3z"/><path class="st0" d="M-190.2 34.3c-.3 0-.7-.1-1-.3-.5-.4-.5-1.1 0-1.6l14.9-12.2c.5-.4 1.4-.4 1.9 0s.5 1.1 0 1.6L-189.3 34c-.2.2-.6.3-.9.3zm37.9 0c-.3 0-.7-.1-1-.3l-14.9-12.2c-.5-.4-.5-1.1 0-1.6s1.4-.4 1.9 0l14.9 12.2c.5.4.5 1.1 0 1.6-.2.2-.6.3-.9.3zm-5.4-18.8c-.7 0-1.4-.5-1.4-1.1V2.2h-24.4v12.2c0 .6-.6 1.1-1.4 1.1-.7 0-1.4-.5-1.4-1.1V2.2c0-1.2 1.2-2.2 2.7-2.2h24.4c1.5 0 2.7 1 2.7 2.2v12.2c.1.6-.5 1.1-1.2 1.1z"/><path class="st0" d="M-164.5 7.7H-178c-.7 0-1.4-.5-1.4-1.1s.6-1.1 1.4-1.1h13.5c.7 0 1.4.5 1.4 1.1s-.7 1.1-1.4 1.1zm.1 5.6H-178c-.7 0-1.4-.5-1.4-1.1 0-.6.6-1.1 1.4-1.1h13.6c.7 0 1.4.5 1.4 1.1-.1.6-.7 1.1-1.4 1.1z"/><path class="st1" d="M-48.3 47c-.2 0-.4-.1-.6-.2-9.4-6-25.5-17.7-27.5-29.4-.7-3.9.3-7.5 2.8-10.7C-70.5 2.8-66.8.5-62.7.1-56.6-.5-51 3-48.3 5-45.6 2.9-40-.6-33.9.1c4.1.4 7.8 2.7 10.9 6.6 2.5 3.2 3.5 6.8 2.8 10.7-2 11.7-18.1 23.5-27.5 29.4-.2.1-.4.2-.6.2zm-13-44.6c-.4 0-.8 0-1.3.1-3.5.4-6.6 2.3-9.3 5.7-2.1 2.7-2.9 5.6-2.3 8.9 1.8 10.5 16.6 21.6 25.8 27.4 9.2-5.9 24-16.9 25.8-27.4.6-3.3-.2-6.2-2.3-8.9-2.7-3.4-5.8-5.3-9.3-5.7-5.9-.6-11.3 3.3-13.4 5-.4.4-1.1.4-1.5 0-1.9-1.6-6.8-5.1-12.2-5.1zM11.6 13v-2.6c0-4.3 3.1-7.8 6.9-7.8s6.9 3.5 6.9 7.8V13c0 .7.5 1.3 1.2 1.3V17h2.3v-2.6c0-1-.5-1.8-1.2-2.3v-1.7C27.8 4.7 23.6 0 18.5 0S9.3 4.7 9.3 10.4v1.7c-.7.5-1.2 1.3-1.2 2.3V17c0 1 .5 1.8 1.2 2.3.3 3.3 2 6.3 4.6 8v1.8l-8.4 3.6C4.4 33 0 34.5 0 37.8v2.6c0 .7.5 1.3 1.2 1.3h16.2v-2.6h-15v-1.3c0-1 2.2-2.2 3.8-2.6h.1l9.3-3.9c.5-.2.8-.7.8-1.2v-3.5c0-.5-.3-1-.7-1.2-2.4-1.3-4-4.1-4-7.1 0-.7-.5-1.3-1.2-1.3v-2.6c.6 0 1.1-.6 1.1-1.4zm25.1 16.1l-3.5-3.9-1.6 1.8 1.5 1.7h-8.8v2.6h8.8L31.6 33l1.6 1.8 3.5-3.9c.4-.5.4-1.3 0-1.8z"/><path class="st1" d="M26.6 35.2c0 .7-.5 1.3-1.2 1.3H22v-13h3.5c.6 0 1.2.6 1.2 1.3v1.3H29v-1.3c0-2.2-1.6-3.9-3.5-3.9h-4.6c-.6 0-1.2.6-1.2 1.3v15.7c0 .7.5 1.3 1.2 1.3h4.6c1.9 0 3.5-1.8 3.5-3.9V34h-2.3v1.2z"/></svg>