<svg version="1.1" id="Capa_1" xmlns="http://www.w3.org/2000/svg" x="0" y="0" viewBox="0 0 45 45" xml:space="preserve"><style>.st0{fill:#6759f9}</style><g id="XMLID_39_"><path id="XMLID_62_" class="st0" d="M9.1 38.4c0 .3.2.6.5.6h8.5c.3 0 .5-.3.5-.6s-.2-.6-.5-.6H9.7c-.3.1-.6.3-.6.6z"/><path id="XMLID_91_" class="st0" d="M39.6 10.5H27.3v-4c0-2.8-2.2-5.1-4.8-5.1H5.4C2.7 1.4.6 3.7.6 6.5v4.6c0 .3.2.6.5.6s.5-.3.5-.6V6.6c0-2.2 1.7-4 3.7-4h17.1c2.1 0 3.7 1.8 3.7 4v4H25v-4c0-1.6-1.2-2.8-2.7-2.8h-1.1c-.7 0-1.5.2-2.2.5l-.3.2c-.5.3-1.1.4-1.7.4h-6.5c-.6 0-1.2-.1-1.7-.4l-.1-.3c-.7-.3-1.4-.5-2.2-.5H5.4C3.9 3.7 2.7 5 2.7 6.6v31.9c0 1.6 1.2 2.8 2.7 2.8h17.1c1.5 0 2.7-1.3 2.7-2.8v-6.3h1.1v6.3c0 2.2-1.7 4-3.7 4H5.4c-2.1 0-3.7-1.8-3.7-4V13.4c0-.3-.2-.6-.5-.6s-.5.3-.5.6v25.1c0 2.8 2.2 5.1 4.8 5.1h17.1c2.7 0 4.8-2.3 4.8-5.1v-6.3h12.3c2.7 0 4.8-2.3 4.8-5.1V15.7c-.1-2.9-2.3-5.2-4.9-5.2zm0 20.5H22.5c-2.1 0-3.7-1.8-3.7-4 0-.3-.2-.6-.5-.6s-.5.3-.5.6c0 2.8 2.2 5.1 4.8 5.1h1.6v6.3c0 .9-.7 1.7-1.6 1.7H5.4c-.9 0-1.6-.8-1.6-1.7V6.6c0-.9.7-1.7 1.6-1.7h1.1c.6 0 1.2.1 1.7.4l.3.2c.7.3 1.4.5 2.2.5h6.5c.7 0 1.5-.2 2.2-.5l.3-.2c.5-.3 1.1-.4 1.7-.4h1.1c.9 0 1.6.8 1.6 1.7v4h-1.6c-2.7 0-4.8 2.3-4.8 5.1v9.1c0 .3.2.6.5.6s.5-.3.5-.6v-8.5h18.7c.3 0 .5-.3.5-.6s-.2-.6-.5-.6H18.8c.3-1.9 1.8-3.4 3.7-3.4h17.1c1.9 0 3.4 1.5 3.7 3.4h-3.7c-.3 0-.5.3-.5.6s.2.6.5.6h3.7v10.8c0 2.2-1.6 3.9-3.7 3.9z"/><path id="XMLID_88_" class="st0" d="M25.7 17.4h-2.1c-.9 0-1.6.8-1.6 1.7v2.3c0 .9.7 1.7 1.6 1.7h2.1c.9 0 1.6-.8 1.6-1.7v-2.3c0-1-.7-1.7-1.6-1.7zm.5 4c0 .3-.2.6-.5.6h-2.1c-.3 0-.5-.3-.5-.6v-2.3c0-.3.2-.6.5-.6h2.1c.3 0 .5.3.5.6v2.3z"/><path id="XMLID_85_" class="st0" d="M32.1 17.4H30c-.9 0-1.6.8-1.6 1.7v2.3c0 .9.7 1.7 1.6 1.7h2.1c.9 0 1.6-.8 1.6-1.7v-2.3c0-1-.7-1.7-1.6-1.7zm.5 4c0 .3-.2.6-.5.6H30c-.3 0-.5-.3-.5-.6v-2.3c0-.3.2-.6.5-.6h2.1c.3 0 .5.3.5.6v2.3z"/><path id="XMLID_82_" class="st0" d="M25.7 24.2h-2.1c-.9 0-1.6.8-1.6 1.7v2.3c0 .9.7 1.7 1.6 1.7h2.1c.9 0 1.6-.8 1.6-1.7v-2.3c0-.9-.7-1.7-1.6-1.7zm.5 4c0 .3-.2.6-.5.6h-2.1c-.3 0-.5-.3-.5-.6v-2.3c0-.3.2-.6.5-.6h2.1c.3 0 .5.3.5.6v2.3z"/><path id="XMLID_79_" class="st0" d="M32.1 24.2H30c-.9 0-1.6.8-1.6 1.7v2.3c0 .9.7 1.7 1.6 1.7h2.1c.9 0 1.6-.8 1.6-1.7v-2.3c0-.9-.7-1.7-1.6-1.7zm.5 4c0 .3-.2.6-.5.6H30c-.3 0-.5-.3-.5-.6v-2.3c0-.3.2-.6.5-.6h2.1c.3 0 .5.3.5.6v2.3z"/><path id="XMLID_76_" class="st0" d="M36.4 23.1h2.1c.9 0 1.6-.8 1.6-1.7v-2.3c0-.9-.7-1.7-1.6-1.7h-2.1c-.9 0-1.6.8-1.6 1.7v2.3c0 .9.7 1.7 1.6 1.7zm-.5-4c0-.3.2-.6.5-.6h2.1c.3 0 .5.3.5.6v2.3c0 .3-.2.6-.5.6h-2.1c-.3 0-.5-.3-.5-.6v-2.3z"/><path id="XMLID_72_" class="st0" d="M41.4 22.1l-2.1 2.3c-.2-.1-.4-.2-.7-.2h-2.1c-.2 0-.5.1-.7.2-.2-.2-.5-.2-.8 0-.2.2-.2.6 0 .8-.1.2-.2.5-.2.7v2.3c0 .9.7 1.7 1.6 1.7h2.1c.9 0 1.6-.8 1.6-1.7v-2.3c0-.3-.1-.5-.2-.7l2.1-2.3c.2-.2.2-.6 0-.8-.1-.2-.4-.2-.6 0zm-3.1 3.2l-.5.5c-.2.2-.5.2-.8 0l-.5-.5h1.8zm.8 2.9c0 .3-.2.6-.5.6h-2.1c-.3 0-.5-.3-.5-.6v-2l.5.5c.3.3.7.5 1.1.5.4 0 .8-.2 1.1-.5l.5-.5-.1 2z"/><path id="XMLID_46_" class="st0" d="M5.4 18.5H14c.3 0 .5-.3.5-.6s-.2-.6-.5-.6H5.4c-.3 0-.5.3-.5.6s.2.6.5.6z"/><path id="XMLID_45_" class="st0" d="M5.4 11.7H14c.3 0 .5-.3.5-.6s-.2-.6-.5-.6H5.4c-.3 0-.5.3-.5.6s.2.6.5.6z"/><path id="XMLID_44_" class="st0" d="M5.4 23.1h4.3c.3 0 .5-.3.5-.6s-.2-.6-.5-.6H5.4c-.3 0-.5.3-.5.6s.2.6.5.6z"/><path id="XMLID_66_" class="st0" d="M14.5 30.5v-2.3c0-.9-.7-1.7-1.6-1.7H6.5c-.9 0-1.6.8-1.6 1.7v2.3c0 .9.7 1.7 1.6 1.7h6.4c.9 0 1.6-.8 1.6-1.7zm-8.6 0v-2.3c0-.3.2-.6.5-.6h6.4c.3 0 .5.3.5.6v2.3c0 .3-.2.6-.5.6H6.5c-.3-.1-.6-.3-.6-.6z"/></g></svg>