<svg version="1.1" id="Capa_1" xmlns="http://www.w3.org/2000/svg" x="0" y="0" viewBox="0 0 45 45" xml:space="preserve"><style>.st0{fill:#6759f9}</style><g id="XMLID_81_"><path id="XMLID_96_" class="st0" d="M40.1 7H12.6c-2.4 0-4.4 1.7-4.4 3.8v6.4H4.8C2.4 17.2.4 18.9.4 21c0 .2.2.4.5.4s.5-.2.5-.4c0-1.6 1.5-3 3.4-3h27.4c1.9 0 3.4 1.3 3.4 3v13.6c0 1.6-1.5 3-3.4 3H4.8c-1.9 0-3.4-1.3-3.4-3V22.7c0-.2-.2-.4-.5-.4s-.5.2-.5.4v11.9c0 2.1 2 3.8 4.4 3.8h27.4c2.4 0 4.4-1.7 4.4-3.8v-6.4H40c2.4 0 4.4-1.7 4.4-3.8v-5.1c0-.2-.2-.4-.5-.4s-.5.2-.5.4v5.1c0 1.6-1.5 3-3.4 3h-3.4v-.8h1.5c1.4 0 2.5-.9 2.5-2.1v-1.7c0-1.2-1.1-2.1-2.5-2.1h-1.5c-.2-1.9-2.1-3.4-4.4-3.4h-23v-.8h34.3v1.3c0 .2.2.4.5.4s.5-.2.5-.4V11c0-2.3-2-4-4.4-4zm-.5 15.7v1.7c0 .7-.7 1.3-1.5 1.3h-1.5v-4.2h1.5c.8-.1 1.5.5 1.5 1.2zM9.2 15.5V13h9.3c.3 0 .5-.2.5-.4s-.2-.4-.5-.4H9.2v-1.3c0-1.6 1.5-3 3.4-3H40c1.9 0 3.4 1.3 3.4 3v1.3h-23c-.3 0-.5.2-.5.4s.2.4.5.4h23v2.5H9.2z"/><path id="XMLID_90_" class="st0" d="M11.7 22.3H5.8c-.8 0-1.5.6-1.5 1.3v1.7c0 .7.7 1.3 1.5 1.3h5.9c.8 0 1.5-.6 1.5-1.3v-1.7c-.1-.8-.7-1.3-1.5-1.3zm.5 1.2v.4h-3v-.8h2.5c.2 0 .5.2.5.4zm-6.9 1.7v-1.7c0-.2.2-.4.5-.4h2.5v2.5H5.8c-.3 0-.5-.1-.5-.4zm6.4.4H9.2v-.8h2.9v.4c.1.3-.2.4-.4.4z"/><path id="XMLID_69_" class="st0" d="M4.8 31.6h3.9c.3 0 .5-.2.5-.4s-.2-.4-.5-.4H4.8c-.3 0-.5.2-.5.4s.2.4.5.4z"/><path id="XMLID_68_" class="st0" d="M12.2 31.2c0 .2.2.4.5.4h3.9c.3 0 .5-.2.5-.4s-.2-.4-.5-.4h-3.9c-.3-.1-.5.1-.5.4z"/><path id="XMLID_67_" class="st0" d="M24.4 30.7h-3.9c-.3 0-.5.2-.5.4s.2.4.5.4h3.9c.3 0 .5-.2.5-.4s-.2-.4-.5-.4z"/><path id="XMLID_65_" class="st0" d="M32.2 31.6c.3 0 .5-.2.5-.4s-.2-.4-.5-.4h-3.9c-.3 0-.5.2-.5.4s.2.4.5.4h3.9z"/><path id="XMLID_63_" class="st0" d="M23.9 34.5c0 .2.2.4.5.4h7.8c.3 0 .5-.2.5-.4s-.2-.4-.5-.4h-7.8c-.3 0-.5.2-.5.4z"/></g></svg>