<svg version="1.1" id="Capa_1" xmlns="http://www.w3.org/2000/svg" x="0" y="0" viewBox="0 0 45 45" xml:space="preserve"><style>.st0{fill:#6759f9}</style><g id="XMLID_10_"><path id="XMLID_17_" class="st0" d="M22.9 1.2c-3.8 0-7.5 1-10.7 2.8-.9-1.3-2.3-2.1-4-2.1-2.3-.1-4.3 1.5-4.7 3.7-.1.3.1.5.4.6.3 0 .6-.2.6-.4.3-1.7 1.9-2.9 3.6-2.9 2 0 3.7 1.6 3.7 3.5 0 1.5-.4 3.7-2 5.7l-.6.6c-.6.6-1.7.6-2.2 0l-.6-.6c-1-1.3-1.7-2.8-1.9-4.5 0-.3-.3-.5-.6-.4-.3 0-.5.3-.5.6.2 1.1.5 2.2 1 3.2-2.1 3.2-3.2 7-3.2 10.8 0 11.4 9.7 20.6 21.6 20.6 3.8 0 7.5-1 10.8-2.8.3-.1.3-.4.2-.7-.2-.2-.5-.3-.7-.2-1.8 1-3.6 1.6-5.6 2.1v-7c0-2.5-2.1-4.5-4.8-4.5-.3 0-.5.2-.5.5s.2.5.5.5c2 0 3.7 1.6 3.7 3.5V41c-1.2.2-2.4.4-3.7.4-2.8 0-5.5-.5-7.9-1.5v-2.3c0-1.2-.5-2.4-1.4-3.2l-1.8-1.6c-.7-.7-1.1-1.6-1.1-2.5V30c0-1.9 1.7-3.5 3.7-3.5h.4c1 0 2 .4 2.6 1l1.8 1.6c.4.4.9.7 1.4.9.3.1.6 0 .7-.2.1-.3 0-.6-.3-.7-.4-.2-.8-.4-1.1-.7l-1.8-1.6c-.9-.9-2.1-1.3-3.4-1.3h-.4c-2.6 0-4.8 2-4.8 4.5v.3c0 1.2.5 2.4 1.4 3.2l1.8 1.6c.7.7 1.1 1.6 1.1 2.5v1.9c-6.4-3.2-11-9.7-11.2-17.2h6.1c1.3 0 2.4-.5 3.4-1.3l1.8-1.6c.7-.7 1.7-1 2.6-1h2.4c2.6 0 4.8-2 4.8-4.5v-4c0-2.5-2.1-4.5-4.8-4.5h-6c0-.3 0-.4-.1-.6 3.1-1.7 6.6-2.7 10.3-2.7 11.1 0 20.3 8.5 20.6 19.1h-3.8c.5-1.3.7-2.5.7-3.5 0-2.5-2.1-4.5-4.8-4.5-2.6 0-4.8 2-4.8 4.5 0 1.3.3 3.1 1.4 5-.9.8-1.4 1.9-1.4 3.1s.5 2.4 1.4 3.2c.9.9 2 1.3 3.3 1.3 1 0 2 .4 2.6 1 .7.6 1 1.4 1.1 2.3-1.2 1.4-2.4 2.7-4 3.8-.2.2-.3.5-.1.7.1.1.3.2.4.2.1 0 .2 0 .3-.1 5.5-3.9 8.7-9.9 8.7-16.5.1-11.3-9.7-20.5-21.6-20.5zm-4.1 5c2 0 3.7 1.6 3.7 3.5v4c0 1.9-1.7 3.5-3.7 3.5h-2.4c-1.3 0-2.4.5-3.4 1.3l-1.8 1.6c-.7.7-1.7 1-2.6 1H2.4c.1-3.1 1-6.3 2.8-9.1.2.2.3.5.5.7.2.3.4.5.6.7.5.5 1.2.8 2 .8s1.5-.3 2-.8c.2-.2.4-.5.6-.7 1.8-2.2 2.1-4.7 2.2-6.3v-.2h5.7zm16.8 8c2 0 3.7 1.6 3.7 3.5 0 1.5-.4 3.7-2 5.7l-.6.6c-.6.6-1.7.6-2.2 0l-.6-.6c-1.6-2-2-4.2-2-5.7 0-1.9 1.7-3.5 3.7-3.5zm3.3 16.4c-.9-.9-2-1.3-3.3-1.3-1 0-2-.4-2.6-1-.7-.6-1.1-1.5-1.1-2.5 0-.8.3-1.6.8-2.2.1.2.2.3.3.5.2.3.4.5.6.7.5.5 1.2.8 2 .8s1.5-.3 2-.8c.2-.2.4-.5.6-.7.5-.6.9-1.2 1.2-1.8h4.2c-.1 3.7-1.3 7.3-3.3 10.3-.4-.8-.8-1.4-1.4-2z"/><path id="XMLID_14_" class="st0" d="M10.9 6.4c0-1.4-1.2-2.5-2.6-2.5S5.6 5 5.6 6.4s1.2 2.5 2.6 2.5c1.4 0 2.7-1.1 2.7-2.5zm-4.3 0c0-.8.7-1.5 1.6-1.5 1 0 1.7.6 1.7 1.5s-.8 1.5-1.7 1.5c-.9 0-1.6-.7-1.6-1.5z"/><path id="XMLID_11_" class="st0" d="M38.3 17.7c0-1.4-1.2-2.5-2.6-2.5-1.5 0-2.6 1.1-2.6 2.5s1.2 2.5 2.6 2.5c1.4 0 2.6-1.1 2.6-2.5zm-4.2 0c0-.8.7-1.5 1.6-1.5.9 0 1.6.7 1.6 1.5s-.7 1.5-1.6 1.5c-1 0-1.6-.6-1.6-1.5z"/></g></svg>