<svg version="1.1" id="Capa_1" xmlns="http://www.w3.org/2000/svg" x="0" y="0" viewBox="0 0 41.7 43.3" xml:space="preserve"><style>.st0{fill:#1b1514}</style><path class="st0" d="M17.5 26.3C14.8 24.9 13 22 13 18.9c0-.7-.6-1.4-1.3-1.4v-2.7c.7 0 1.3-.6 1.3-1.4v-2.7c0-4.5 3.5-8.1 7.8-8.1s7.8 3.6 7.8 8.1v2.7c0 .7.6 1.4 1.3 1.4v2.7h2.6v-2.7c0-1-.5-1.9-1.3-2.3v-1.7c0-6-4.7-10.8-10.4-10.8S10.4 4.9 10.4 10.8v1.7c-.8.5-1.3 1.3-1.3 2.3v2.7c0 1 .5 1.9 1.4 2.4.3 3.4 2.3 6.6 5.2 8.3v1.9l-9.5 3.7c-1.3.4-6.2 1.9-6.2 5.4v2.7c0 .7.6 1.4 1.3 1.4h16.9v-2.7H2.6v-1.4c0-1.1 2.5-2.3 4.2-2.7h.1l10.4-4.1c.5-.2.8-.7.8-1.3v-3.6c.1-.5-.1-1-.6-1.2z"/><path class="st0" d="M39.1 33.8v4.1H23.5V24.4h3.9v-2.7h-3.9c-1.4 0-2.6 1.2-2.6 2.7v13.5c0 1.5 1.2 2.7 2.6 2.7h15.6c1.4 0 2.6-1.2 2.6-2.7v-4.1h-2.6z"/><path class="st0" d="M27 28.8l-1.8 1.9 3.9 4.1c.3.3.6.4.9.4s.7-.1.9-.4l9.1-9.5-1.8-1.9-8.2 8.5-3-3.1z"/></svg>