<svg version="1.1" id="Capa_1" xmlns="http://www.w3.org/2000/svg" x="0" y="0" viewBox="0 0 56.7 47" xml:space="preserve"><style>.st0{fill:#1b1514}</style><path class="st0" d="M-44.2 18.4c-2.7-1.4-4.5-4.2-4.5-7.3 0-.7-.6-1.4-1.3-1.4V7.1c.7 0 1.3-.6 1.3-1.4V3c0-4.5 3.5-8.1 7.8-8.1S-33-1.5-33 3v2.7c0 .7.6 1.4 1.3 1.4v2.7h2.6V7.1c0-1-.5-1.9-1.3-2.3V3c0-6-4.7-10.8-10.4-10.8S-51.3-3-51.3 3v1.7c-.8.5-1.3 1.3-1.3 2.3v2.7c0 1 .5 1.9 1.4 2.4.3 3.4 2.3 6.6 5.2 8.3v1.9l-9.5 3.7c-1.2.3-6.1 1.8-6.1 5.4v2.7c0 .7.6 1.4 1.3 1.4h16.9v-2.7H-59v-1.4c0-1.1 2.5-2.3 4.2-2.7h.1l10.4-4.1c.5-.2.8-.7.8-1.3v-3.6c0-.6-.2-1-.7-1.3z"/><path class="st0" d="M-22.6 26v4.1h-15.6V16.5h3.9v-2.7h-3.9c-1.4 0-2.6 1.2-2.6 2.7V30c0 1.5 1.2 2.7 2.6 2.7h15.6c1.4 0 2.6-1.2 2.6-2.7v-4h-2.6z"/><path class="st0" d="M-34.7 21l-1.8 1.9 3.9 4.1c.3.3.6.4.9.4s.7-.1.9-.4l9.1-9.5-1.8-1.9-8.2 8.5-3-3.1zm-43.6 14.4h-32.5c-3 0-5.4-2-5.4-4.4V13.3c0-2.4 2.4-4.4 5.4-4.4h2.7c.7 0 1.4.5 1.4 1.1 0 .6-.6 1.1-1.4 1.1h-2.7c-1.5 0-2.7 1-2.7 2.2V31c0 1.2 1.2 2.2 2.7 2.2h32.5c1.5 0 2.7-1 2.7-2.2V13.3c0-1.2-1.2-2.2-2.7-2.2H-81c-.7 0-1.4-.5-1.4-1.1 0-.6.6-1.1 1.4-1.1h2.7c3 0 5.4 2 5.4 4.4V31c0 2.4-2.5 4.4-5.4 4.4z"/><path class="st0" d="M-94.6 24.4c-.3 0-.6-.1-.8-.2L-114.3 12c-.6-.4-.7-1.1-.2-1.6.5-.5 1.3-.6 1.9-.2l18.1 11.6 18.1-11.6c.6-.4 1.4-.3 1.9.2s.4 1.2-.2 1.6l-18.9 12.2c-.4.1-.7.2-1 .2z"/><path class="st0" d="M-113.5 34.3c-.3 0-.7-.1-1-.3-.5-.4-.5-1.1 0-1.6l14.9-12.2c.5-.4 1.4-.4 1.9 0s.5 1.1 0 1.6L-112.6 34c-.2.2-.6.3-.9.3zm37.9 0c-.3 0-.7-.1-1-.3l-14.9-12.2c-.5-.4-.5-1.1 0-1.6s1.4-.4 1.9 0l14.9 12.2c.5.4.5 1.1 0 1.6-.2.2-.6.3-.9.3zM-81 15.5c-.7 0-1.4-.5-1.4-1.1V2.2h-24.4v12.2c0 .6-.6 1.1-1.4 1.1-.7 0-1.4-.5-1.4-1.1V2.2c0-1.2 1.2-2.2 2.7-2.2h24.4c1.5 0 2.7 1 2.7 2.2v12.2c.1.6-.5 1.1-1.2 1.1z"/><path class="st0" d="M-87.8 7.7h-13.5c-.7 0-1.4-.5-1.4-1.1s.6-1.1 1.4-1.1h13.5c.7 0 1.4.5 1.4 1.1s-.7 1.1-1.4 1.1zm.1 5.6h-13.6c-.7 0-1.4-.5-1.4-1.1 0-.6.6-1.1 1.4-1.1h13.6c.7 0 1.4.5 1.4 1.1-.1.6-.7 1.1-1.4 1.1z"/><path d="M28.3 47c-.2 0-.4-.1-.6-.2-9.4-6-25.5-17.7-27.5-29.4C-.5 13.5.5 9.9 3 6.7 6.1 2.8 9.8.5 13.9.1 20-.6 25.6 2.9 28.3 5 31 2.9 36.6-.6 42.7.1c4.1.4 7.8 2.7 10.9 6.6 2.5 3.2 3.5 6.8 2.8 10.7-2 11.7-18.1 23.5-27.5 29.4-.1.1-.3.2-.6.2zM15.4 2.4c-.4 0-.8 0-1.3.1-3.5.4-6.6 2.3-9.3 5.7C2.7 10.8 2 13.7 2.5 17c1.8 10.5 16.6 21.6 25.8 27.4 9.2-5.9 24-16.9 25.8-27.4.6-3.3-.2-6.2-2.3-8.9-2.7-3.4-5.8-5.3-9.3-5.7-5.9-.6-11.3 3.3-13.4 5-.4.4-1.1.4-1.5 0-1.9-1.5-6.8-5-12.2-5z" fill="#1a1414"/></svg>