<svg xmlns="http://www.w3.org/2000/svg" width="18" height="18"><path fill="#d3d3d3" d="M10.4 9.092c-.742.431-.994.747-.994 1.292v.337h-1.48l-.012-.366c-.072-.879.235-1.425 1.006-1.877.72-.43 1.024-.703 1.024-1.232s-.512-.917-1.147-.917c-.644 0-1.109.418-1.143 1.05H6.14c.03-1.375 1.045-2.347 2.76-2.347 1.599 0 2.7.887 2.7 2.162 0 .849-.41 1.433-1.2 1.897zm-1.714 4.132c-.503 0-.913-.383-.913-.878 0-.49.41-.878.913-.878.507 0 .917.383.917.878s-.406.878-.917.878zM8.869.262A8.868 8.868 0 000 9.13C0 14.03 3.97 18 8.87 18a8.868 8.868 0 008.868-8.87A8.868 8.868 0 008.869.262z"/></svg>