<svg version="1.1" id="Capa_1" xmlns="http://www.w3.org/2000/svg" x="0" y="0" viewBox="0 0 45 45" xml:space="preserve"><style>.st0{fill:#6759f9}</style><g id="XMLID_40_"><path id="XMLID_64_" class="st0" d="M7.8 24c-1.3 0-2.4 1.1-2.4 2.4v13.7c0 1.3 1.1 2.4 2.4 2.4h7.6c1.3 0 2.4-1.1 2.4-2.4V26.4c0-1.3-1.1-2.4-2.4-2.4H7.8zm7.6 17.6H7.8c-.8 0-1.4-.7-1.4-1.5 0-3 2.3-5.4 5.2-5.4s5.2 2.4 5.2 5.4c.1.8-.6 1.5-1.4 1.5zM9.3 31.3c0-1.3 1.1-2.4 2.4-2.4S14 30 14 31.3s-1.1 2.4-2.4 2.4-2.3-1-2.3-2.4zm7.6-4.9v10.3c-.8-1.3-1.9-2.2-3.3-2.7.8-.6 1.4-1.6 1.4-2.8 0-1.9-1.5-3.4-3.3-3.4s-3.3 1.5-3.3 3.4c0 1.2.6 2.2 1.4 2.8-1.4.5-2.5 1.4-3.3 2.7V26.4c0-.8.6-1.5 1.4-1.5h7.6c.7 0 1.4.7 1.4 1.5z"/><path id="XMLID_34_" class="st0" d="M40.1 4.4h-3.4c-.2-2.2-2-3.9-4.2-3.9H6c-2.4 0-4.3 2-4.3 4.4v35.2c0 2.4 1.9 4.4 4.3 4.4h24.7c.3 0 .5-.2.5-.5s-.2-.5-.5-.5H6c-1.8 0-3.3-1.5-3.3-3.4V23H6c.3 0 .5-.2.5-.5S6.2 22 6 22H2.6V4.9C2.6 3 4.1 1.5 6 1.5h26.6c1.7 0 3 1.3 3.3 2.9h-9c-.3 0-.5.2-.5.5s.2.5.5.5h13.3c1.8 0 3.3 1.5 3.3 3.4v27.4c0 1.9-1.5 3.4-3.3 3.4H24.9c-1.8 0-3.3-1.5-3.3-3.4V8.8c0-1.9 1.5-3.4 3.3-3.4.3 0 .5-.2.5-.5s-.2-.5-.5-.5c-2.4 0-4.3 2-4.3 4.4v5.4H6c-.3 0-.5.2-.5.5s.2.5.5.5h14.7V22H7.8c-.3 0-.5.2-.5.5s.3.5.5.5h12.8v13.2c0 2.4 1.9 4.4 4.3 4.4h10.9c-.2 1.7-1.6 2.9-3.3 2.9-.3 0-.5.2-.5.5s.2.5.5.5c2.2 0 4-1.7 4.2-3.9h3.4c2.4 0 4.3-2 4.3-4.4V8.8c0-2.4-2-4.4-4.3-4.4z"/><path id="XMLID_33_" class="st0" d="M40.6 34.2c0-.3-.2-.5-.5-.5H24.9c-.3 0-.5.2-.5.5s.2.5.5.5h15.2c.3 0 .5-.2.5-.5z"/><path id="XMLID_32_" class="st0" d="M26.8 35.7c-.3 0-.5.2-.5.5s.2.5.5.5h11.4c.3 0 .5-.2.5-.5s-.2-.5-.5-.5H26.8z"/><path id="XMLID_31_" class="st0" d="M6 7.3h13.3c.3 0 .5-.2.5-.5s-.2-.5-.5-.5H6c-.3 0-.5.2-.5.5s.2.5.5.5z"/><path id="XMLID_30_" class="st0" d="M6 11.2h9.5c.3 0 .5-.2.5-.5s-.2-.5-.5-.5H6c-.3 0-.5.2-.5.5s.2.5.5.5z"/><path id="XMLID_41_" class="st0" d="M34.4 8.5c-.6-.1-1.2-.2-1.9-.2-.6 0-1.3.1-1.9.2-4.6.9-8.1 5.1-8.1 10.1s3.5 9.2 8 10.1c.6.1 1.2.2 1.9.2.6 0 1.3-.1 1.9-.2 4.6-.9 8-5.1 8-10.1.2-5-3.3-9.2-7.9-10.1zm-3.8 1c.2.1.5.1.7.2-1.3.8-2.4 1.9-3.3 3.2-.6-.3-1.1-.7-1.6-1.2 1.2-1.1 2.6-1.9 4.2-2.2zm-4.8 2.9c.5.5 1.1.9 1.7 1.3-.7 1.3-1.1 2.8-1.2 4.4h-2.8c.2-2.2 1-4.2 2.3-5.7zm0 12.3c-1.3-1.5-2.2-3.5-2.3-5.7h2.8c.1 1.6.5 3 1.2 4.4-.6.4-1.2.8-1.7 1.3zm4.8 3c-1.6-.3-3-1.1-4.2-2.2.5-.5 1-.9 1.6-1.2.8 1.3 1.9 2.4 3.3 3.2-.2 0-.4.1-.7.2zm1.4-1c-1.3-.7-2.3-1.7-3.2-3 1-.4 2-.7 3.2-.7v3.7zm0-4.6c-1.3.1-2.5.4-3.7.9-.6-1.2-1-2.5-1-3.9H32v3zm0-4h-4.7c.1-1.4.4-2.7 1-3.9 1.1.5 2.4.8 3.7.9v3zm0-4c-1.1-.1-2.2-.3-3.2-.8.8-1.2 1.9-2.3 3.2-3v3.8zm1-3.7c1.3.7 2.3 1.7 3.2 3-1 .4-2 .7-3.2.7v-3.7zm0 4.7c1.3-.1 2.5-.4 3.7-.9.6 1.2 1 2.5 1 3.9H33v-3zm0 4h4.7c-.1 1.4-.4 2.7-1 3.9-1.1-.5-2.4-.8-3.7-.9v-3zm0 3.9c1.1.1 2.2.3 3.2.8-.8 1.2-1.9 2.2-3.2 3V23zm1.4 4.7c-.2-.1-.5-.1-.7-.2 1.3-.8 2.4-1.9 3.3-3.2.6.3 1.1.7 1.6 1.2-1.2 1-2.6 1.8-4.2 2.2zm4.8-3c-.5-.5-1.1-.9-1.7-1.3.7-1.3 1.1-2.8 1.2-4.4h2.8c-.1 2.3-1 4.2-2.3 5.7zm0-12.3c1.3 1.5 2.2 3.5 2.3 5.7h-2.8c-.1-1.6-.5-3-1.2-4.4.6-.3 1.2-.8 1.7-1.3zm-.7-.7c-.5.5-1 .9-1.6 1.2-.8-1.3-2-2.4-3.3-3.2.2-.1.5-.2.7-.2 1.7.3 3.1 1.1 4.2 2.2z"/></g></svg>