<?xml version="1.0" encoding="utf-8"?>
<!-- Generator: Adobe Illustrator 26.0.3, SVG Export Plug-In . SVG Version: 6.00 Build 0)  -->
<svg version="1.1" id="Capa_1" xmlns="http://www.w3.org/2000/svg" xmlns:xlink="http://www.w3.org/1999/xlink" x="0px" y="0px"
	 viewBox="0 0 48 32" style="enable-background:new 0 0 48 32;" xml:space="preserve">
<style type="text/css">
	.st0{fill:#FFFFFF;}
	.st1{fill:#2E68B1;}
</style>
<g id="americanexpress-color-large_1_" transform="translate(321.000000, 192.000000)">
	<path class="st0" d="M-317-192h40c2.2,0,4,1.8,4,4v24c0,2.2-1.8,4-4,4h-40c-2.2,0-4-1.8-4-4v-24C-321-190.2-319.2-192-317-192z"/>
	<g>
		<path class="st1" d="M-312.1-174.1v8.2h8.3l0.9-1.2l0.8,1.2h5.1v-1.8h0.6c0.5,0,1-0.1,1.5-0.2v2.1h3.4v-1.5l1.2,1.5h15.6
			c0.6,0,1.3-0.2,1.8-0.5v3.4c-0.5,1.8-2.1,3-3.9,3H-317c-2.2,0-4-1.8-4-4v-12.6h2.3l0.5-1.2h1.1l0.5,1.2h18.3v-1.5l1.2,1.5h4.8
			v-0.7c0.7,0.5,1.6,0.8,2.4,0.7h2.9l0.5-1.2h1.1l0.5,1.2h4.9v-1.6l1,1.6h3.4v-8.2h-3.6v1.7l-1.1-1.7h-3.1v2.1l-1-2.1h-5.3
			c-0.9,0-1.8,0.3-2.5,0.8v-0.8H-310l-0.6,1.8l-0.6-1.8h-4v2.1l-0.9-2.1h-3.3l-1.6,3.8v-7c0-2.2,1.8-4,4-4h40.1c1.8,0,3.5,1.2,3.9,3
			v14.9h-29.1l-0.9,1.2l-0.8-1.2H-312.1z"/>
		<path class="st1" d="M-306.3-171.6v-1.2h-4.5v5.6h4.5v-1.2h-3.2v-1h3.1v-1.2h-3.1v-1L-306.3-171.6z M-302.2-170l2.3-2.8h-1.7
			l-1.4,1.7l-1.4-1.8h-1.7l2.3,2.8l-2.2,2.8h1.6l1.4-1.8l1.4,1.8h1.7L-302.2-170z M-296.6-172.8h-3.1v5.6h1.4v-1.9h1.7
			c0.5,0,1-0.1,1.4-0.5c0.4-0.4,0.6-0.9,0.6-1.4c0-0.5-0.2-1-0.6-1.4S-296.1-172.9-296.6-172.8L-296.6-172.8z M-296.7-170.2h-1.6
			v-1.4h1.6c0.4,0,0.7,0.3,0.7,0.7C-296-170.6-296.3-170.3-296.7-170.2L-296.7-170.2z M-290.4-169.2c1-0.1,1.7-1,1.6-2
			c-0.1-1-1-1.7-2-1.6h-3.1v5.6h1.4v-2h0.6l1.7,2h1.7L-290.4-169.2z M-290.9-170.3h-1.6v-1.3h1.6c0.2,0,0.4,0,0.5,0.2
			c0.1,0.1,0.2,0.3,0.2,0.5c0,0.2-0.1,0.4-0.2,0.5C-290.6-170.4-290.8-170.4-290.9-170.3L-290.9-170.3z M-283.6-171.6v-1.2h-4.6v5.6
			h4.6v-1.2h-3.2v-1h3.1v-1.2h-3.1v-1L-283.6-171.6z M-279.9-170.6h-1.3c-0.2,0-0.4,0-0.5-0.2c-0.1-0.2-0.1-0.4,0-0.6
			c0.1-0.2,0.3-0.3,0.5-0.2h2.4l0.5-1.2h-2.9c-0.5-0.1-1,0.1-1.4,0.4c-0.4,0.3-0.6,0.8-0.6,1.3c0,0.5,0.1,0.9,0.5,1.2
			c0.3,0.3,0.8,0.5,1.3,0.4h1.3c0.2,0,0.4,0,0.5,0.2c0.1,0.2,0.1,0.4,0,0.6c-0.1,0.2-0.3,0.3-0.5,0.2h-2.9v1.2h2.9
			c0.5,0,1-0.1,1.4-0.5c0.4-0.4,0.6-0.8,0.5-1.3c0-0.5-0.2-0.9-0.5-1.2C-278.9-170.5-279.4-170.7-279.9-170.6L-279.9-170.6z
			 M-276-171.6h2.4l0.5-1.2l0,0h-2.9c-0.5-0.1-1,0.1-1.4,0.4c-0.4,0.3-0.6,0.8-0.6,1.3c0,0.5,0.1,0.9,0.5,1.2s0.8,0.5,1.3,0.4h1.3
			c0.2,0,0.4,0,0.5,0.2c0.1,0.2,0.1,0.4,0,0.6c-0.1,0.2-0.3,0.3-0.5,0.2h-2.9v1.2h2.9c0.8,0.1,1.6-0.4,1.8-1.2v-1.3
			c-0.3-0.6-0.9-1-1.6-0.9h-1.4c-0.2,0-0.4,0-0.5-0.2c-0.1-0.2-0.1-0.4,0-0.6C-276.4-171.6-276.2-171.7-276-171.6L-276-171.6z"/>
		<path class="st1" d="M-316.8-183.5h-1.8l-2.5,5.6h1.5l0.5-1.1h2.6l0.5,1.2h1.5L-316.8-183.5z M-318.6-180.1l0.5-1.3l0.4-0.9
			l0.4,0.9l0.5,1.3H-318.6z M-309.3-183.5l-1.1,3.3l-0.2,0.6l0,0l-0.2-0.6l-1.1-3.3h-2.2v5.6h1.3v-3.7v-0.9l0,0l0.3,0.9l1.3,3.7h1.2
			l1.3-3.7l0.3-0.9l0,0v0.9v3.7h1.3v-5.6H-309.3z M-301.5-182.3v-1.2h-4.5v5.6h4.5v-1.2h-3.2v-1h3.1v-1.2h-3.1v-1L-301.5-182.3z
			 M-297.1-179.9c0.9-0.1,1.6-0.9,1.5-1.8c0-0.5-0.2-1-0.6-1.3c-0.4-0.3-0.9-0.5-1.4-0.4h-3.1v5.6h1.4v-2h0.6l1.7,2h1.7
			L-297.1-179.9z M-297.6-181.1h-1.6v-1.2h1.6c0.2,0,0.4,0,0.5,0.2c0.1,0.1,0.2,0.3,0.2,0.5c0,0.2-0.1,0.4-0.2,0.5
			C-297.3-181.1-297.5-181-297.6-181.1L-297.6-181.1z M-294.9-183.5v5.6h1.4v-5.6H-294.9z M-289.9-182.3h1.5v-1.2h-1.6
			c-0.7,0-1.5,0.2-2,0.8s-0.8,1.3-0.7,2v0.1c-0.1,0.7,0.2,1.5,0.7,2c0.5,0.5,1.2,0.8,2,0.8h0.1l0.5-1.2h-0.4c-0.4,0-0.8-0.1-1.1-0.4
			c-0.3-0.3-0.4-0.7-0.4-1.1v-0.1c0-0.4,0.1-0.8,0.4-1.1C-290.7-182.1-290.3-182.3-289.9-182.3L-289.9-182.3z M-285.1-183.5h-1.8
			l-2.4,5.6h1.5l0.5-1.1h2.7l0.5,1.2h1.5L-285.1-183.5z M-287-180.1l0.5-1.3l0.4-0.9l0,0l0.3,0.9l0.5,1.3H-287z M-278.4-183.5v3v0.7
			l0,0l-0.4-0.6l-2-3h-1.7v5.6h1.3v-3.2v-0.7l0,0l0.4,0.6l2.1,3.2h1.6v-5.6H-278.4z"/>
	</g>
</g>
</svg>
