<?xml version="1.0" encoding="utf-8"?>
<!-- Generator: Adobe Illustrator 26.0.3, SVG Export Plug-In . SVG Version: 6.00 Build 0)  -->
<svg version="1.1" id="Capa_1" xmlns="http://www.w3.org/2000/svg" xmlns:xlink="http://www.w3.org/1999/xlink" x="0px" y="0px"
	 viewBox="0 0 48 32" style="enable-background:new 0 0 48 32;" xml:space="preserve">
<style type="text/css">
	.st0{fill:#F8F6F3;}
	.st1{opacity:0;}
	.st2{fill:#FFFFFF;}
	.st3{fill:#EA5812;}
	.st4{fill:#E21219;}
	.st5{fill:#F49E00;}
</style>
<g id="mastercard-color_large" transform="translate(208.000000, 192.000000)">
	<path class="st0" d="M-204-192h40c2.2,0,4,1.8,4,4v24c0,2.2-1.8,4-4,4h-40c-2.2,0-4-1.8-4-4v-24C-208-190.2-206.2-192-204-192z"/>
	<g transform="translate(4.000000, 3.000000)">
		<g class="st1">
			<rect x="-207.4" y="-191.8" class="st2" width="38.7" height="25.6"/>
		</g>
		<rect x="-193.1" y="-187.3" class="st3" width="10.2" height="16.7"/>
		<path class="st4" d="M-192-179c0-3.2,1.5-6.3,4-8.3c-4.3-3.4-10.6-2.9-14.4,1.1s-3.8,10.3,0,14.4s10,4.6,14.4,1.1
			C-190.5-172.7-192-175.8-192-179z"/>
		<path class="st5" d="M-171.9-172.4v-0.3h0.2v-0.1h-0.4v0.1h0.1L-171.9-172.4L-171.9-172.4z M-171.2-172.4v-0.4h-0.1l-0.1,0.3
			l-0.1-0.3h-0.1v0.4h0.1v-0.3l0.1,0.3h0.1l0.1-0.3L-171.2-172.4L-171.2-172.4z"/>
		<path class="st5" d="M-170.8-179c0,4.1-2.3,7.8-6,9.5s-8,1.3-11.2-1.2c4.6-3.6,5.4-10.3,1.8-14.9c-0.5-0.7-1.1-1.3-1.8-1.8
			c3.2-2.5,7.5-3,11.2-1.2S-170.8-183.1-170.8-179L-170.8-179z"/>
	</g>
</g>
</svg>
