<?xml version="1.0" encoding="utf-8"?>
<!-- Generator: Adobe Illustrator 26.0.3, SVG Export Plug-In . SVG Version: 6.00 Build 0)  -->
<svg version="1.1" id="Capa_1" xmlns="http://www.w3.org/2000/svg" xmlns:xlink="http://www.w3.org/1999/xlink" x="0px" y="0px"
	 viewBox="0 0 48 32" style="enable-background:new 0 0 48 32;" xml:space="preserve">
<style type="text/css">
	.st0{fill:#2B2964;}
	.st1{fill:#FFFFFF;}
</style>
<g id="visa-color_large" transform="translate(96.000000, 192.000000)">
	<path class="st0" d="M-92-192h40c2.2,0,4,1.8,4,4v24c0,2.2-1.8,4-4,4h-40c-2.2,0-4-1.8-4-4v-24C-96-190.2-94.2-192-92-192z"/>
	<path class="st1" d="M-72.1-180.6l-2,9.2h-2.4l2-9.2H-72.1z M-62.1-174.6l1.3-3.5l0.7,3.5H-62.1z M-59.4-171.3h2.2l-1.9-9.2h-2
		c-0.4,0-0.8,0.3-1,0.7l-3.6,8.6h2.5l0.5-1.4h3L-59.4-171.3z M-65.7-174.3c0-2.5-3.3-2.7-3.3-3.7c0-0.3,0.3-0.7,1-0.8
		c0.8-0.1,1.6,0.1,2.4,0.4l0.4-2c-0.7-0.3-1.5-0.4-2.2-0.4c-2.4,0-4,1.3-4,3.1c0,1.3,1.2,2.1,2.1,2.5s1.2,0.8,1.2,1.1
		c0,0.6-0.7,0.9-1.4,0.9c-0.9,0-1.7-0.2-2.4-0.6l-0.4,2c0.8,0.3,1.8,0.5,2.7,0.5C-67.3-171.2-65.6-172.5-65.7-174.3 M-75.5-180.6
		l-3.9,9.3H-82l-1.9-7.4c0-0.4-0.3-0.7-0.6-0.8c-0.8-0.4-1.5-0.6-2.4-0.8l0.1-0.3h4.1c0.6,0,1,0.4,1.1,0.9l1,5.3l2.5-6.3H-75.5z"/>
</g>
</svg>
