<?xml version="1.0" encoding="utf-8"?>
<!-- Generator: Adobe Illustrator 26.0.3, SVG Export Plug-In . SVG Version: 6.00 Build 0)  -->
<svg version="1.1" id="Capa_1" xmlns="http://www.w3.org/2000/svg" xmlns:xlink="http://www.w3.org/1999/xlink" x="0px" y="0px"
	 viewBox="0 0 41.7 43.3" style="enable-background:new 0 0 41.7 43.3;" xml:space="preserve">
<style type="text/css">
	.st0{fill:#1B1514;}
</style>
<g>
	<path class="st0" d="M17.5,26.3C14.8,24.9,13,22,13,18.9c0-0.7-0.6-1.4-1.3-1.4v-2.7c0.7,0,1.3-0.6,1.3-1.4v-2.7
		c0-4.5,3.5-8.1,7.8-8.1s7.8,3.6,7.8,8.1v2.7c0,0.7,0.6,1.4,1.3,1.4v2.7h2.6v-2.7c0-1-0.5-1.9-1.3-2.3v-1.7c0-6-4.7-10.8-10.4-10.8
		S10.4,4.9,10.4,10.8v1.7c-0.8,0.5-1.3,1.3-1.3,2.3v2.7c0,1,0.5,1.9,1.4,2.4c0.3,3.4,2.3,6.6,5.2,8.3v1.9l-9.5,3.7
		C4.9,34.2,0,35.7,0,39.2v2.7c0,0.7,0.6,1.4,1.3,1.4h16.9v-2.7H2.6v-1.4c0-1.1,2.5-2.3,4.2-2.7c0,0,0.1,0,0.1,0l10.4-4.1
		c0.5-0.2,0.8-0.7,0.8-1.3v-3.6C18.2,27,18,26.5,17.5,26.3z"/>
	<path class="st0" d="M39.1,33.8v4.1H23.5V24.4h3.9v-2.7h-3.9c-1.4,0-2.6,1.2-2.6,2.7v13.5c0,1.5,1.2,2.7,2.6,2.7h15.6
		c1.4,0,2.6-1.2,2.6-2.7v-4.1H39.1z"/>
	<path class="st0" d="M27,28.8l-1.8,1.9l3.9,4.1c0.3,0.3,0.6,0.4,0.9,0.4s0.7-0.1,0.9-0.4l9.1-9.5l-1.8-1.9L30,31.9L27,28.8z"/>
</g>
<g>
</g>
<g>
</g>
<g>
</g>
<g>
</g>
<g>
</g>
<g>
</g>
</svg>
