<?xml version="1.0" encoding="utf-8"?>
<!-- Generator: Adobe Illustrator 26.0.3, SVG Export Plug-In . SVG Version: 6.00 Build 0)  -->
<svg version="1.1" id="Capa_1" xmlns="http://www.w3.org/2000/svg" xmlns:xlink="http://www.w3.org/1999/xlink" x="0px" y="0px"
	 viewBox="0 0 43.3 35.4" style="enable-background:new 0 0 43.3 35.4;" xml:space="preserve">
<style type="text/css">
	.st0{fill:#1B1514;}
</style>
<g>
	<path class="st0" d="M72,18.4c-2.7-1.4-4.5-4.2-4.5-7.3c0-0.7-0.6-1.4-1.3-1.4V7.1c0.7,0,1.3-0.6,1.3-1.4V3c0-4.5,3.5-8.1,7.8-8.1
		s7.8,3.6,7.8,8.1v2.7c0,0.7,0.6,1.4,1.3,1.4v2.7h2.6V7.1c0-1-0.5-1.9-1.3-2.3V3c0-6-4.7-10.8-10.4-10.8C69.6-7.8,64.9-3,64.9,3v1.7
		c-0.8,0.5-1.3,1.3-1.3,2.3v2.7c0,1,0.5,1.9,1.4,2.4c0.3,3.4,2.3,6.6,5.2,8.3v1.9l-9.5,3.7c-1.2,0.3-6.1,1.8-6.1,5.4v2.7
		c0,0.7,0.6,1.4,1.3,1.4h16.9v-2.7H57.1v-1.4c0-1.1,2.5-2.3,4.2-2.7c0,0,0.1,0,0.1,0l10.4-4.1c0.5-0.2,0.8-0.7,0.8-1.3v-3.6
		C72.8,19.1,72.5,18.7,72,18.4z"/>
	<path class="st0" d="M93.6,26v4.1H78V16.5h3.9v-2.7H78c-1.4,0-2.6,1.2-2.6,2.7v13.5c0,1.5,1.2,2.7,2.6,2.7h15.6
		c1.4,0,2.6-1.2,2.6-2.7V26H93.6z"/>
	<path class="st0" d="M81.5,21l-1.8,1.9l3.9,4.1c0.3,0.3,0.6,0.4,0.9,0.4s0.7-0.1,0.9-0.4l9.1-9.5l-1.8-1.9l-8.2,8.5L81.5,21z"/>
</g>
<g>
	<g>
		<g>
			<path class="st0" d="M37.9,35.4H5.4c-3,0-5.4-2-5.4-4.4V13.3c0-2.4,2.4-4.4,5.4-4.4h2.7c0.7,0,1.4,0.5,1.4,1.1
				c0,0.6-0.6,1.1-1.4,1.1H5.4c-1.5,0-2.7,1-2.7,2.2V31c0,1.2,1.2,2.2,2.7,2.2h32.5c1.5,0,2.7-1,2.7-2.2V13.3c0-1.2-1.2-2.2-2.7-2.2
				h-2.7c-0.7,0-1.4-0.5-1.4-1.1c0-0.6,0.6-1.1,1.4-1.1h2.7c3,0,5.4,2,5.4,4.4V31C43.3,33.4,40.9,35.4,37.9,35.4z"/>
		</g>
		<g>
			<path class="st0" d="M21.7,24.4c-0.3,0-0.6-0.1-0.8-0.2L1.9,11.9c-0.6-0.4-0.7-1.1-0.2-1.6C2.1,9.9,3,9.8,3.5,10.2l18.1,11.6
				l18.1-11.6c0.6-0.4,1.4-0.3,1.9,0.2c0.5,0.5,0.4,1.2-0.2,1.6L22.5,24.1C22.2,24.3,21.9,24.4,21.7,24.4z"/>
		</g>
		<g>
			<path class="st0" d="M2.7,34.3c-0.3,0-0.7-0.1-1-0.3c-0.5-0.4-0.5-1.1,0-1.6l14.9-12.2c0.5-0.4,1.4-0.4,1.9,0s0.5,1.1,0,1.6
				L3.7,34C3.4,34.2,3.1,34.3,2.7,34.3z"/>
		</g>
		<g>
			<path class="st0" d="M40.6,34.3c-0.3,0-0.7-0.1-1-0.3L24.8,21.8c-0.5-0.4-0.5-1.1,0-1.6c0.5-0.4,1.4-0.4,1.9,0l14.9,12.2
				c0.5,0.4,0.5,1.1,0,1.6C41.3,34.2,40.9,34.3,40.6,34.3z"/>
		</g>
	</g>
	<g>
		<path class="st0" d="M35.2,15.5c-0.7,0-1.4-0.5-1.4-1.1V2.2H9.5v12.2c0,0.6-0.6,1.1-1.4,1.1S6.8,15,6.8,14.4V2.2C6.8,1,8,0,9.5,0
			h24.4c1.5,0,2.7,1,2.7,2.2v12.2C36.5,15,35.9,15.5,35.2,15.5z"/>
	</g>
	<g>
		<path class="st0" d="M28.4,7.7H14.9c-0.7,0-1.4-0.5-1.4-1.1s0.6-1.1,1.4-1.1h13.5c0.7,0,1.4,0.5,1.4,1.1S29.2,7.7,28.4,7.7z"/>
	</g>
	<g>
		<path class="st0" d="M28.5,13.3H14.9c-0.7,0-1.4-0.5-1.4-1.1c0-0.6,0.6-1.1,1.4-1.1h13.6c0.7,0,1.4,0.5,1.4,1.1
			C29.9,12.8,29.3,13.3,28.5,13.3z"/>
	</g>
</g>
<g>
</g>
<g>
</g>
<g>
</g>
<g>
</g>
<g>
</g>
<g>
</g>
</svg>
