<?xml version="1.0" encoding="utf-8"?>
<!-- Generator: Adobe Illustrator 26.0.1, SVG Export Plug-In . SVG Version: 6.00 Build 0)  -->
<svg version="1.1" id="Capa_1" xmlns="http://www.w3.org/2000/svg" xmlns:xlink="http://www.w3.org/1999/xlink" x="0px" y="0px"
	 viewBox="0 0 45 45" style="enable-background:new 0 0 45 45;" xml:space="preserve">
<style type="text/css">
	.st0{fill:#6759F9;}
</style>
<g id="XMLID_10_">
	<path id="XMLID_17_" class="st0" d="M22.9,1.2c-3.8,0-7.5,1-10.7,2.8c-0.9-1.3-2.3-2.1-4-2.1C5.9,1.8,3.9,3.4,3.5,5.6
		C3.4,5.9,3.6,6.1,3.9,6.2c0.3,0,0.6-0.2,0.6-0.4c0.3-1.7,1.9-2.9,3.6-2.9c2,0,3.7,1.6,3.7,3.5c0,1.5-0.4,3.7-2,5.7
		c-0.2,0.2-0.4,0.4-0.6,0.6c-0.6,0.6-1.7,0.6-2.2,0c-0.2-0.2-0.4-0.4-0.6-0.6c-1-1.3-1.7-2.8-1.9-4.5c0-0.3-0.3-0.5-0.6-0.4
		c-0.3,0-0.5,0.3-0.5,0.6c0.2,1.1,0.5,2.2,1,3.2c-2.1,3.2-3.2,7-3.2,10.8c0,11.4,9.7,20.6,21.6,20.6c3.8,0,7.5-1,10.8-2.8
		c0.3-0.1,0.3-0.4,0.2-0.7c-0.2-0.2-0.5-0.3-0.7-0.2c-1.8,1-3.6,1.6-5.6,2.1v-7c0-2.5-2.1-4.5-4.8-4.5c-0.3,0-0.5,0.2-0.5,0.5
		s0.2,0.5,0.5,0.5c2,0,3.7,1.6,3.7,3.5V41c-1.2,0.2-2.4,0.4-3.7,0.4c-2.8,0-5.5-0.5-7.9-1.5v-2.3c0-1.2-0.5-2.4-1.4-3.2l-1.8-1.6
		c-0.7-0.7-1.1-1.6-1.1-2.5V30c0-1.9,1.7-3.5,3.7-3.5h0.4c1,0,2,0.4,2.6,1l1.8,1.6c0.4,0.4,0.9,0.7,1.4,0.9c0.3,0.1,0.6,0,0.7-0.2
		c0.1-0.3,0-0.6-0.3-0.7c-0.4-0.2-0.8-0.4-1.1-0.7l-1.8-1.6c-0.9-0.9-2.1-1.3-3.4-1.3h-0.4c-2.6,0-4.8,2-4.8,4.5v0.3
		c0,1.2,0.5,2.4,1.4,3.2l1.8,1.6c0.7,0.7,1.1,1.6,1.1,2.5v1.9C7.2,36.3,2.6,29.8,2.4,22.3h6.1c1.3,0,2.4-0.5,3.4-1.3l1.8-1.6
		c0.7-0.7,1.7-1,2.6-1h2.4c2.6,0,4.8-2,4.8-4.5v-4c0-2.5-2.1-4.5-4.8-4.5h-6c0-0.3,0-0.4-0.1-0.6c3.1-1.7,6.6-2.7,10.3-2.7
		c11.1,0,20.3,8.5,20.6,19.1h-3.8c0.5-1.3,0.7-2.5,0.7-3.5c0-2.5-2.1-4.5-4.8-4.5c-2.6,0-4.8,2-4.8,4.5c0,1.3,0.3,3.1,1.4,5
		c-0.9,0.8-1.4,1.9-1.4,3.1s0.5,2.4,1.4,3.2c0.9,0.9,2,1.3,3.3,1.3c1,0,2,0.4,2.6,1c0.7,0.6,1,1.4,1.1,2.3c-1.2,1.4-2.4,2.7-4,3.8
		c-0.2,0.2-0.3,0.5-0.1,0.7c0.1,0.1,0.3,0.2,0.4,0.2c0.1,0,0.2,0,0.3-0.1c5.5-3.9,8.7-9.9,8.7-16.5C44.6,10.4,34.8,1.2,22.9,1.2z
		 M18.8,6.2c2,0,3.7,1.6,3.7,3.5v4c0,1.9-1.7,3.5-3.7,3.5h-2.4c-1.3,0-2.4,0.5-3.4,1.3l-1.8,1.6c-0.7,0.7-1.7,1-2.6,1H2.4
		C2.5,18,3.4,14.8,5.2,12c0.2,0.2,0.3,0.5,0.5,0.7c0.2,0.3,0.4,0.5,0.6,0.7c0.5,0.5,1.2,0.8,2,0.8s1.5-0.3,2-0.8
		c0.2-0.2,0.4-0.5,0.6-0.7c1.8-2.2,2.1-4.7,2.2-6.3c0-0.1,0-0.1,0-0.2H18.8z M35.6,14.2c2,0,3.7,1.6,3.7,3.5c0,1.5-0.4,3.7-2,5.7
		c-0.2,0.2-0.4,0.4-0.6,0.6c-0.6,0.6-1.7,0.6-2.2,0c-0.2-0.2-0.4-0.4-0.6-0.6c-1.6-2-2-4.2-2-5.7C31.9,15.8,33.6,14.2,35.6,14.2z
		 M38.9,30.6c-0.9-0.9-2-1.3-3.3-1.3c-1,0-2-0.4-2.6-1c-0.7-0.6-1.1-1.5-1.1-2.5c0-0.8,0.3-1.6,0.8-2.2c0.1,0.2,0.2,0.3,0.3,0.5
		c0.2,0.3,0.4,0.5,0.6,0.7c0.5,0.5,1.2,0.8,2,0.8s1.5-0.3,2-0.8c0.2-0.2,0.4-0.5,0.6-0.7c0.5-0.6,0.9-1.2,1.2-1.8h4.2
		c-0.1,3.7-1.3,7.3-3.3,10.3C39.9,31.8,39.5,31.2,38.9,30.6z"/>
	<path id="XMLID_14_" class="st0" d="M10.9,6.4c0-1.4-1.2-2.5-2.6-2.5S5.6,5,5.6,6.4s1.2,2.5,2.6,2.5C9.6,8.9,10.9,7.8,10.9,6.4z
		 M6.6,6.4c0-0.8,0.7-1.5,1.6-1.5c1,0,1.7,0.6,1.7,1.5S9.1,7.9,8.2,7.9C7.3,7.9,6.6,7.2,6.6,6.4z"/>
	<path id="XMLID_11_" class="st0" d="M38.3,17.7c0-1.4-1.2-2.5-2.6-2.5c-1.5,0-2.6,1.1-2.6,2.5s1.2,2.5,2.6,2.5
		C37.1,20.2,38.3,19.1,38.3,17.7z M34.1,17.7c0-0.8,0.7-1.5,1.6-1.5c0.9,0,1.6,0.7,1.6,1.5s-0.7,1.5-1.6,1.5
		C34.7,19.2,34.1,18.6,34.1,17.7z"/>
</g>
</svg>
