<?xml version="1.0" encoding="utf-8"?>
<!-- Generator: Adobe Illustrator 23.0.1, SVG Export Plug-In . SVG Version: 6.00 Build 0)  -->
<svg version="1.1" id="Layer_1" xmlns="http://www.w3.org/2000/svg" xmlns:xlink="http://www.w3.org/1999/xlink" x="0px" y="0px"
	 viewBox="0 0 30.4 30.39" style="enable-background:new 0 0 30.4 30.39;" xml:space="preserve">
<style type="text/css">
	.st0{fill:#FFFFFF;}
</style>
<g>
	<g>
		<g>
			<path class="st0" d="M15.2,4.05c-6.42,0-11.65,5.23-11.65,11.65S8.77,27.36,15.2,27.36s11.65-5.23,11.65-11.65
				S21.62,4.05,15.2,4.05z M15.2,26.34c-5.87,0-10.64-4.77-10.64-10.64S9.33,5.07,15.2,5.07c5.87,0,10.64,4.77,10.64,10.64
				S21.07,26.34,15.2,26.34z"/>
		</g>
	</g>
	<g>
		<g>
			<path class="st0" d="M20.09,5.13c-0.05-0.02-0.1-0.04-0.15-0.04l-0.12-0.02c-0.18-0.03-0.36,0.05-0.47,0.19
				c-0.11,0.14-0.14,0.34-0.07,0.5c0.35,0.83,0.76,2.51,0.23,2.9l-1.17,0.47c-0.89,0.36-1.51,1.17-1.63,2.13l-0.01,0.06
				c-0.03,0.2-0.19,0.26-0.26,0.27c-0.13,0.03-0.29-0.01-0.39-0.17l-0.5-0.84c-0.18-0.31-0.53-0.49-0.88-0.47
				c-0.36,0.02-0.67,0.23-0.82,0.55c-0.45,0.97-1.02,2.36-1.16,3.51c-0.04,0.36,0.02,0.72,0.18,1.05l0.58,1.17
				c0.21,0.41,0.52,0.76,0.92,1.01c0.36,0.23,1.04,0.69,1.47,1.21c0.49,0.59,1.15,0.97,1.85,1.09c-0.03,0.95,0.03,2.51,0.68,3.2
				c0.23,0.24,0.51,0.37,0.82,0.38c0.06,0.01,0.16,0.02,0.29,0.02c0.38,0,1-0.09,1.58-0.56c0.8-0.66,1.21-1.82,1.22-3.45l0.73-3.27
				l0.28,0.46c0.22,0.37,0.6,0.64,1.03,0.72c0.43,0.08,0.87-0.02,1.22-0.28l1.11-0.83c0.13-0.1,0.2-0.25,0.2-0.41
				C26.85,11.18,24.2,7.03,20.09,5.13z M24.93,16.13c-0.12,0.09-0.27,0.12-0.42,0.1c-0.15-0.03-0.27-0.12-0.35-0.25l-0.53-0.88
				c-0.17-0.29-0.5-0.44-0.83-0.39c-0.33,0.05-0.6,0.3-0.67,0.63l-0.84,3.79c-0.01,0.04-0.01,0.07-0.01,0.11
				c0,1.32-0.29,2.26-0.84,2.72c-0.5,0.42-1.07,0.33-1.09,0.33c-0.07-0.01-0.11,0.04-0.22-0.07c-0.32-0.34-0.48-1.51-0.39-2.86
				c0.01-0.16-0.05-0.32-0.16-0.44c-0.11-0.12-0.27-0.19-0.43-0.19c-0.57,0-1.12-0.28-1.52-0.75c-0.49-0.6-1.2-1.1-1.71-1.42
				c-0.24-0.15-0.43-0.36-0.55-0.61l-0.58-1.17c-0.07-0.15-0.1-0.31-0.08-0.47c0.12-1.04,0.68-2.37,1.03-3.13l0.46,0.77
				c0.3,0.51,0.88,0.76,1.46,0.64c0.57-0.12,0.98-0.56,1.06-1.13l0.01-0.08c0.07-0.59,0.45-1.09,1-1.31l1.22-0.49
				c0.03-0.01,0.05-0.02,0.07-0.04c0.96-0.58,0.84-1.98,0.59-3.01c3.14,1.86,5.14,5.23,5.23,8.91L24.93,16.13z"/>
		</g>
	</g>
	<g>
		<g>
			<path class="st0" d="M12.81,22.73l-0.31-0.31c-0.37-0.37-0.81-0.67-1.29-0.87l-1.56-0.67c-0.63-0.27-1.04-0.89-1.04-1.57v-0.76
				c0-0.47-0.23-0.9-0.61-1.17c-0.38-0.27-0.87-0.33-1.31-0.16l-2.43,0.91c-0.24,0.09-0.38,0.35-0.31,0.61
				c1.14,4.25,4.66,7.54,8.97,8.4c0.03,0.01,0.07,0.01,0.1,0.01c0.22,0,0.42-0.15,0.49-0.37l0.19-0.65
				C14.03,24.92,13.7,23.62,12.81,22.73z M12.72,25.85l-0.05,0.19c-3.58-0.88-6.49-3.61-7.61-7.13l1.99-0.75
				c0.13-0.05,0.27-0.03,0.38,0.05c0.11,0.08,0.18,0.2,0.18,0.34v0.76c0,1.09,0.65,2.07,1.65,2.5l1.56,0.67
				c0.37,0.16,0.69,0.38,0.97,0.66l0.31,0.31C12.72,24.08,12.96,24.99,12.72,25.85z"/>
		</g>
	</g>
	<g>
		<g>
			<path class="st0" d="M9.89,5.81c-0.16-0.2-0.44-0.24-0.65-0.12c-3.35,2-5.47,5.51-5.67,9.39c-0.01,0.17,0.07,0.34,0.21,0.44
				c0.09,0.06,0.19,0.1,0.3,0.1c0.06,0,0.12-0.01,0.18-0.03l3.14-1.24c0.75-0.3,1.14-1.14,0.89-1.91c-0.06-0.19-0.01-0.39,0.13-0.53
				l1.46-1.46c0.5-0.5,0.77-1.16,0.77-1.87V7.91C10.64,7.15,10.37,6.41,9.89,5.81z M9.63,8.57c0,0.43-0.17,0.84-0.48,1.15
				l-1.46,1.46c-0.41,0.41-0.55,1.01-0.37,1.57c0.09,0.26-0.05,0.55-0.3,0.65l-2.37,0.94c0.39-3.06,2.1-5.81,4.7-7.52
				c0.18,0.34,0.28,0.71,0.28,1.09L9.63,8.57L9.63,8.57z"/>
		</g>
	</g>
	<g>
		<g>
			<path class="st0" d="M15.2,0c-0.52,0-1.05,0.03-1.57,0.08c-0.28,0.03-0.48,0.28-0.45,0.56c0.03,0.26,0.25,0.45,0.5,0.45
				c0.02,0,0.03,0,0.05,0c0.48-0.05,0.98-0.07,1.47-0.07c0.28,0,0.51-0.23,0.51-0.51S15.48,0,15.2,0z"/>
		</g>
	</g>
	<g>
		<g>
			<path class="st0" d="M1.21,17.58C1.08,16.8,1.01,16,1.01,15.2c0-0.17,0-0.34,0.01-0.51c0.01-0.28-0.21-0.51-0.49-0.52
				c-0.28-0.01-0.51,0.21-0.52,0.49C0,14.84,0,15.02,0,15.2c0,0.86,0.07,1.72,0.21,2.55c0.04,0.25,0.26,0.42,0.5,0.42
				c0.03,0,0.06,0,0.09-0.01C1.07,18.12,1.26,17.86,1.21,17.58z"/>
		</g>
	</g>
	<g>
		<g>
			<path class="st0" d="M3.31,22.95c-0.53-0.81-0.98-1.68-1.33-2.57c-0.1-0.26-0.4-0.39-0.66-0.29c-0.26,0.1-0.39,0.4-0.29,0.66
				c0.38,0.96,0.86,1.89,1.42,2.76c0.1,0.15,0.26,0.23,0.42,0.23c0.1,0,0.19-0.03,0.28-0.08C3.4,23.5,3.47,23.18,3.31,22.95z"/>
		</g>
	</g>
	<g>
		<g>
			<path class="st0" d="M2.15,8.42C1.9,8.3,1.6,8.41,1.47,8.66c-0.45,0.93-0.8,1.92-1.04,2.92c-0.07,0.27,0.1,0.55,0.37,0.61
				c0.04,0.01,0.08,0.01,0.12,0.01c0.23,0,0.44-0.16,0.49-0.39c0.23-0.94,0.56-1.86,0.97-2.73C2.51,8.84,2.4,8.54,2.15,8.42z"/>
		</g>
	</g>
	<g>
		<g>
			<path class="st0" d="M5.92,3.79c-0.18-0.21-0.5-0.23-0.71-0.05C4.43,4.43,3.72,5.19,3.09,6.01c-0.17,0.22-0.13,0.54,0.1,0.71
				c0.09,0.07,0.2,0.1,0.31,0.1c0.15,0,0.3-0.07,0.4-0.2c0.58-0.77,1.25-1.48,1.98-2.12C6.09,4.32,6.11,4,5.92,3.79z"/>
		</g>
	</g>
	<g>
		<g>
			<path class="st0" d="M12.73,29.17c-0.95-0.17-1.89-0.43-2.78-0.79c-0.26-0.1-0.55,0.02-0.66,0.28c-0.1,0.26,0.02,0.55,0.28,0.66
				c0.96,0.38,1.96,0.67,2.98,0.85c0.03,0.01,0.06,0.01,0.09,0.01c0.24,0,0.46-0.17,0.5-0.42C13.19,29.48,13,29.22,12.73,29.17z"/>
		</g>
	</g>
	<g>
		<g>
			<path class="st0" d="M19.1,29.38c-0.06-0.27-0.34-0.44-0.61-0.38c-0.94,0.22-1.9,0.35-2.87,0.38c-0.28,0.01-0.5,0.24-0.49,0.52
				c0.01,0.27,0.23,0.49,0.51,0.49c0,0,0.01,0,0.02,0c1.04-0.03,2.07-0.17,3.08-0.4C18.99,29.92,19.16,29.65,19.1,29.38z"/>
		</g>
	</g>
	<g>
		<g>
			<path class="st0" d="M11.22,1.04c-0.08-0.27-0.37-0.41-0.64-0.33C9.6,1.03,8.64,1.44,7.74,1.95C7.5,2.09,7.41,2.4,7.55,2.64
				C7.64,2.81,7.81,2.9,7.99,2.9c0.08,0,0.17-0.02,0.25-0.07c0.84-0.48,1.74-0.86,2.65-1.16C11.16,1.59,11.31,1.31,11.22,1.04z"/>
		</g>
	</g>
	<g>
		<g>
			<path class="st0" d="M7.38,27.03c-0.8-0.53-1.56-1.15-2.24-1.84c-0.2-0.2-0.52-0.2-0.72,0c-0.2,0.2-0.2,0.52,0,0.72
				c0.73,0.73,1.54,1.4,2.4,1.97C6.9,27.94,7,27.96,7.1,27.96c0.16,0,0.33-0.08,0.42-0.23C7.67,27.5,7.61,27.19,7.38,27.03z"/>
		</g>
	</g>
	<g>
		<g>
			<path class="st0" d="M23.23,27.51c-0.15-0.24-0.46-0.32-0.7-0.17c-0.42,0.25-0.85,0.49-1.29,0.69c-0.25,0.12-0.36,0.42-0.24,0.67
				c0.09,0.18,0.27,0.29,0.46,0.29c0.07,0,0.15-0.02,0.22-0.05c0.47-0.22,0.94-0.47,1.38-0.74C23.3,28.06,23.38,27.75,23.23,27.51z"
				/>
		</g>
	</g>
	<g>
		<g>
			<path class="st0" d="M30.29,22.49c-0.17-0.22-0.49-0.26-0.71-0.09l-4.56,3.55c-0.12,0.1-0.2,0.24-0.2,0.4v1.52
				c0,0.28,0.23,0.51,0.51,0.51s0.51-0.23,0.51-0.51v-1.27l4.36-3.39C30.42,23.03,30.46,22.71,30.29,22.49z"/>
		</g>
	</g>
	<g>
		<g>
			<path class="st0" d="M25.49,25.86l-1.52-0.51c-0.27-0.09-0.55,0.06-0.64,0.32c-0.09,0.27,0.05,0.55,0.32,0.64l1.52,0.51
				c0.05,0.02,0.11,0.03,0.16,0.03c0.21,0,0.41-0.13,0.48-0.35C25.9,26.24,25.76,25.95,25.49,25.86z"/>
		</g>
	</g>
	<g>
		<g>
			<path class="st0" d="M29.35,26.66l-1.01-2.53c-0.04-0.1-0.11-0.19-0.21-0.25l-2.53-1.52c-0.24-0.14-0.55-0.07-0.7,0.17
				c-0.14,0.24-0.07,0.55,0.17,0.7l2.39,1.43l0.95,2.38c0.08,0.2,0.27,0.32,0.47,0.32c0.06,0,0.13-0.01,0.19-0.04
				C29.33,27.22,29.45,26.92,29.35,26.66z"/>
		</g>
	</g>
</g>
</svg>
