<?xml version="1.0" encoding="utf-8"?>
<!-- Generator: Adobe Illustrator 26.0.3, SVG Export Plug-In . SVG Version: 6.00 Build 0)  -->
<svg version="1.1" id="Capa_1" xmlns="http://www.w3.org/2000/svg" xmlns:xlink="http://www.w3.org/1999/xlink" x="0px" y="0px"
	 viewBox="0 0 56.7 47" style="enable-background:new 0 0 56.7 47;" xml:space="preserve">
<style type="text/css">
	.st0{fill:#1B1514;}
	.st1{fill:#1A1414;}
</style>
<g>
	<path class="st0" d="M-44.2,18.4c-2.7-1.4-4.5-4.2-4.5-7.3c0-0.7-0.6-1.4-1.3-1.4V7.1c0.7,0,1.3-0.6,1.3-1.4V3
		c0-4.5,3.5-8.1,7.8-8.1S-33-1.5-33,3v2.7c0,0.7,0.6,1.4,1.3,1.4v2.7h2.6V7.1c0-1-0.5-1.9-1.3-2.3V3c0-6-4.7-10.8-10.4-10.8
		S-51.3-3-51.3,3v1.7c-0.8,0.5-1.3,1.3-1.3,2.3v2.7c0,1,0.5,1.9,1.4,2.4c0.3,3.4,2.3,6.6,5.2,8.3v1.9l-9.5,3.7
		c-1.2,0.3-6.1,1.8-6.1,5.4v2.7c0,0.7,0.6,1.4,1.3,1.4h16.9v-2.7h-15.6v-1.4c0-1.1,2.5-2.3,4.2-2.7c0,0,0.1,0,0.1,0l10.4-4.1
		c0.5-0.2,0.8-0.7,0.8-1.3v-3.6C-43.5,19.1-43.7,18.7-44.2,18.4z"/>
	<path class="st0" d="M-22.6,26v4.1h-15.6V16.5h3.9v-2.7h-3.9c-1.4,0-2.6,1.2-2.6,2.7v13.5c0,1.5,1.2,2.7,2.6,2.7h15.6
		c1.4,0,2.6-1.2,2.6-2.7V26H-22.6z"/>
	<path class="st0" d="M-34.7,21l-1.8,1.9l3.9,4.1c0.3,0.3,0.6,0.4,0.9,0.4s0.7-0.1,0.9-0.4l9.1-9.5l-1.8-1.9l-8.2,8.5L-34.7,21z"/>
</g>
<g>
	<g>
		<g>
			<path class="st0" d="M-78.3,35.4h-32.5c-3,0-5.4-2-5.4-4.4V13.3c0-2.4,2.4-4.4,5.4-4.4h2.7c0.7,0,1.4,0.5,1.4,1.1
				c0,0.6-0.6,1.1-1.4,1.1h-2.7c-1.5,0-2.7,1-2.7,2.2V31c0,1.2,1.2,2.2,2.7,2.2h32.5c1.5,0,2.7-1,2.7-2.2V13.3
				c0-1.2-1.2-2.2-2.7-2.2H-81c-0.7,0-1.4-0.5-1.4-1.1c0-0.6,0.6-1.1,1.4-1.1h2.7c3,0,5.4,2,5.4,4.4V31
				C-72.9,33.4-75.4,35.4-78.3,35.4z"/>
		</g>
		<g>
			<path class="st0" d="M-94.6,24.4c-0.3,0-0.6-0.1-0.8-0.2l-18.9-12.2c-0.6-0.4-0.7-1.1-0.2-1.6c0.5-0.5,1.3-0.6,1.9-0.2l18.1,11.6
				l18.1-11.6c0.6-0.4,1.4-0.3,1.9,0.2c0.5,0.5,0.4,1.2-0.2,1.6l-18.9,12.2C-94,24.3-94.3,24.4-94.6,24.4z"/>
		</g>
		<g>
			<path class="st0" d="M-113.5,34.3c-0.3,0-0.7-0.1-1-0.3c-0.5-0.4-0.5-1.1,0-1.6l14.9-12.2c0.5-0.4,1.4-0.4,1.9,0
				c0.5,0.4,0.5,1.1,0,1.6L-112.6,34C-112.8,34.2-113.2,34.3-113.5,34.3z"/>
		</g>
		<g>
			<path class="st0" d="M-75.6,34.3c-0.3,0-0.7-0.1-1-0.3l-14.9-12.2c-0.5-0.4-0.5-1.1,0-1.6s1.4-0.4,1.9,0l14.9,12.2
				c0.5,0.4,0.5,1.1,0,1.6C-74.9,34.2-75.3,34.3-75.6,34.3z"/>
		</g>
	</g>
	<g>
		<path class="st0" d="M-81,15.5c-0.7,0-1.4-0.5-1.4-1.1V2.2h-24.4v12.2c0,0.6-0.6,1.1-1.4,1.1c-0.7,0-1.4-0.5-1.4-1.1V2.2
			c0-1.2,1.2-2.2,2.7-2.2h24.4c1.5,0,2.7,1,2.7,2.2v12.2C-79.7,15-80.3,15.5-81,15.5z"/>
	</g>
	<g>
		<path class="st0" d="M-87.8,7.7h-13.5c-0.7,0-1.4-0.5-1.4-1.1s0.6-1.1,1.4-1.1h13.5c0.7,0,1.4,0.5,1.4,1.1S-87.1,7.7-87.8,7.7z"/>
	</g>
	<g>
		<path class="st0" d="M-87.7,13.3h-13.6c-0.7,0-1.4-0.5-1.4-1.1c0-0.6,0.6-1.1,1.4-1.1h13.6c0.7,0,1.4,0.5,1.4,1.1
			C-86.4,12.8-87,13.3-87.7,13.3z"/>
	</g>
</g>
<path class="st1" d="M28.3,47c-0.2,0-0.4-0.1-0.6-0.2c-9.4-6-25.5-17.7-27.5-29.4C-0.5,13.5,0.5,9.9,3,6.7c3.1-3.9,6.8-6.2,10.9-6.6
	C20-0.6,25.6,2.9,28.3,5c2.7-2.1,8.3-5.6,14.4-4.9c4.1,0.4,7.8,2.7,10.9,6.6c2.5,3.2,3.5,6.8,2.8,10.7c-2,11.7-18.1,23.5-27.5,29.4
	C28.8,46.9,28.6,47,28.3,47z M15.4,2.4c-0.4,0-0.8,0-1.3,0.1c-3.5,0.4-6.6,2.3-9.3,5.7C2.7,10.8,2,13.7,2.5,17
	c1.8,10.5,16.6,21.6,25.8,27.4c9.2-5.9,24-16.9,25.8-27.4c0.6-3.3-0.2-6.2-2.3-8.9l0,0c-2.7-3.4-5.8-5.3-9.3-5.7
	c-5.9-0.6-11.3,3.3-13.4,5c-0.4,0.4-1.1,0.4-1.5,0C25.7,5.9,20.8,2.4,15.4,2.4z"/>
<g>
</g>
<g>
</g>
<g>
</g>
<g>
</g>
<g>
</g>
<g>
</g>
</svg>
