<?xml version="1.0" encoding="utf-8"?>
<!-- Generator: Adobe Illustrator 26.0.3, SVG Export Plug-In . SVG Version: 6.00 Build 0)  -->
<svg version="1.1" id="Capa_1" xmlns="http://www.w3.org/2000/svg" xmlns:xlink="http://www.w3.org/1999/xlink" x="0px" y="0px"
	 viewBox="0 0 37 41.8" style="enable-background:new 0 0 37 41.8;" xml:space="preserve">
<style type="text/css">
	.st0{fill:#1B1514;}
	.st1{fill:#1A1414;}
</style>
<g>
	<path class="st0" d="M-120.9,18.4c-2.7-1.4-4.5-4.2-4.5-7.3c0-0.7-0.6-1.4-1.3-1.4V7.1c0.7,0,1.3-0.6,1.3-1.4V3
		c0-4.5,3.5-8.1,7.8-8.1s7.8,3.6,7.8,8.1v2.7c0,0.7,0.6,1.4,1.3,1.4v2.7h2.6V7.1c0-1-0.5-1.9-1.3-2.3V3c0-6-4.7-10.8-10.4-10.8
		C-123.3-7.8-128-3-128,3v1.7c-0.8,0.5-1.3,1.3-1.3,2.3v2.7c0,1,0.5,1.9,1.4,2.4c0.3,3.4,2.3,6.6,5.2,8.3v1.9l-9.5,3.7
		c-1.2,0.3-6.1,1.8-6.1,5.4v2.7c0,0.7,0.6,1.4,1.3,1.4h16.9v-2.7h-15.6v-1.4c0-1.1,2.5-2.3,4.2-2.7c0,0,0.1,0,0.1,0l10.4-4.1
		c0.5-0.2,0.8-0.7,0.8-1.3v-3.6C-120.1,19.1-120.4,18.7-120.9,18.4z"/>
	<path class="st0" d="M-99.3,26v4.1h-15.6V16.5h3.9v-2.7h-3.9c-1.4,0-2.6,1.2-2.6,2.7v13.5c0,1.5,1.2,2.7,2.6,2.7h15.6
		c1.4,0,2.6-1.2,2.6-2.7V26H-99.3z"/>
	<path class="st0" d="M-111.4,21l-1.8,1.9l3.9,4.1c0.3,0.3,0.6,0.4,0.9,0.4s0.7-0.1,0.9-0.4l9.1-9.5l-1.8-1.9l-8.2,8.5L-111.4,21z"
		/>
</g>
<g>
	<g>
		<g>
			<path class="st0" d="M-155,35.4h-32.5c-3,0-5.4-2-5.4-4.4V13.3c0-2.4,2.4-4.4,5.4-4.4h2.7c0.7,0,1.4,0.5,1.4,1.1
				c0,0.6-0.6,1.1-1.4,1.1h-2.7c-1.5,0-2.7,1-2.7,2.2V31c0,1.2,1.2,2.2,2.7,2.2h32.5c1.5,0,2.7-1,2.7-2.2V13.3
				c0-1.2-1.2-2.2-2.7-2.2h-2.7c-0.7,0-1.4-0.5-1.4-1.1c0-0.6,0.6-1.1,1.4-1.1h2.7c3,0,5.4,2,5.4,4.4V31
				C-149.6,33.4-152,35.4-155,35.4z"/>
		</g>
		<g>
			<path class="st0" d="M-171.3,24.4c-0.3,0-0.6-0.1-0.8-0.2L-191,11.9c-0.6-0.4-0.7-1.1-0.2-1.6c0.5-0.5,1.3-0.6,1.9-0.2l18.1,11.6
				l18.1-11.6c0.6-0.4,1.4-0.3,1.9,0.2c0.5,0.5,0.4,1.2-0.2,1.6l-18.9,12.2C-170.7,24.3-171,24.4-171.3,24.4z"/>
		</g>
		<g>
			<path class="st0" d="M-190.2,34.3c-0.3,0-0.7-0.1-1-0.3c-0.5-0.4-0.5-1.1,0-1.6l14.9-12.2c0.5-0.4,1.4-0.4,1.9,0s0.5,1.1,0,1.6
				L-189.3,34C-189.5,34.2-189.9,34.3-190.2,34.3z"/>
		</g>
		<g>
			<path class="st0" d="M-152.3,34.3c-0.3,0-0.7-0.1-1-0.3l-14.9-12.2c-0.5-0.4-0.5-1.1,0-1.6s1.4-0.4,1.9,0l14.9,12.2
				c0.5,0.4,0.5,1.1,0,1.6C-151.6,34.2-152,34.3-152.3,34.3z"/>
		</g>
	</g>
	<g>
		<path class="st0" d="M-157.7,15.5c-0.7,0-1.4-0.5-1.4-1.1V2.2h-24.4v12.2c0,0.6-0.6,1.1-1.4,1.1c-0.7,0-1.4-0.5-1.4-1.1V2.2
			c0-1.2,1.2-2.2,2.7-2.2h24.4c1.5,0,2.7,1,2.7,2.2v12.2C-156.4,15-157,15.5-157.7,15.5z"/>
	</g>
	<g>
		<path class="st0" d="M-164.5,7.7H-178c-0.7,0-1.4-0.5-1.4-1.1s0.6-1.1,1.4-1.1h13.5c0.7,0,1.4,0.5,1.4,1.1S-163.8,7.7-164.5,7.7z"
			/>
	</g>
	<g>
		<path class="st0" d="M-164.4,13.3H-178c-0.7,0-1.4-0.5-1.4-1.1c0-0.6,0.6-1.1,1.4-1.1h13.6c0.7,0,1.4,0.5,1.4,1.1
			C-163.1,12.8-163.7,13.3-164.4,13.3z"/>
	</g>
</g>
<path class="st1" d="M-48.3,47c-0.2,0-0.4-0.1-0.6-0.2c-9.4-6-25.5-17.7-27.5-29.4c-0.7-3.9,0.3-7.5,2.8-10.7
	c3.1-3.9,6.8-6.2,10.9-6.6c6.1-0.6,11.7,2.9,14.4,4.9c2.7-2.1,8.3-5.6,14.4-4.9c4.1,0.4,7.8,2.7,10.9,6.6c2.5,3.2,3.5,6.8,2.8,10.7
	c-2,11.7-18.1,23.5-27.5,29.4C-47.9,46.9-48.1,47-48.3,47z M-61.3,2.4c-0.4,0-0.8,0-1.3,0.1c-3.5,0.4-6.6,2.3-9.3,5.7
	c-2.1,2.7-2.9,5.6-2.3,8.9c1.8,10.5,16.6,21.6,25.8,27.4c9.2-5.9,24-16.9,25.8-27.4c0.6-3.3-0.2-6.2-2.3-8.9l0,0
	c-2.7-3.4-5.8-5.3-9.3-5.7c-5.9-0.6-11.3,3.3-13.4,5c-0.4,0.4-1.1,0.4-1.5,0C-51,5.9-55.9,2.4-61.3,2.4z"/>
<g>
	<path class="st1" d="M11.6,13v-2.6c0-4.3,3.1-7.8,6.9-7.8s6.9,3.5,6.9,7.8V13c0,0.7,0.5,1.3,1.2,1.3V17h2.3v-2.6
		c0-1-0.5-1.8-1.2-2.3v-1.7C27.8,4.7,23.6,0,18.5,0S9.3,4.7,9.3,10.4v1.7c-0.7,0.5-1.2,1.3-1.2,2.3V17c0,1,0.5,1.8,1.2,2.3
		c0.3,3.3,2,6.3,4.6,8v1.8l-8.4,3.6C4.4,33,0,34.5,0,37.8v2.6c0,0.7,0.5,1.3,1.2,1.3h16.2v-2.6h-15v-1.3c0-1,2.2-2.2,3.8-2.6
		c0,0,0.1,0,0.1,0l9.3-3.9c0.5-0.2,0.8-0.7,0.8-1.2v-3.5c0-0.5-0.3-1-0.7-1.2c-2.4-1.3-4-4.1-4-7.1c0-0.7-0.5-1.3-1.2-1.3v-2.6
		C11.1,14.4,11.6,13.8,11.6,13z"/>
	<path class="st1" d="M36.7,29.1l-3.5-3.9L31.6,27l1.5,1.7h-8.8v2.6h8.8L31.6,33l1.6,1.8l3.5-3.9C37.1,30.4,37.1,29.6,36.7,29.1z"/>
	<path class="st1" d="M26.6,35.2c0,0.7-0.5,1.3-1.2,1.3H22v-13h3.5c0.6,0,1.2,0.6,1.2,1.3v1.3h2.3v-1.3c0-2.2-1.6-3.9-3.5-3.9h-4.6
		c-0.6,0-1.2,0.6-1.2,1.3v15.7c0,0.7,0.5,1.3,1.2,1.3h4.6c1.9,0,3.5-1.8,3.5-3.9v-1.3h-2.3V35.2z"/>
</g>
<g>
</g>
<g>
</g>
<g>
</g>
<g>
</g>
<g>
</g>
<g>
</g>
</svg>
