<?xml version="1.0" encoding="utf-8"?>
<!-- Generator: Adobe Illustrator 26.0.1, SVG Export Plug-In . SVG Version: 6.00 Build 0)  -->
<svg version="1.1" id="Capa_1" xmlns="http://www.w3.org/2000/svg" xmlns:xlink="http://www.w3.org/1999/xlink" x="0px" y="0px"
	 viewBox="0 0 45 45" style="enable-background:new 0 0 45 45;" xml:space="preserve">
<style type="text/css">
	.st0{fill:#6759F9;}
</style>
<g id="XMLID_39_">
	<path id="XMLID_62_" class="st0" d="M9.1,38.4c0,0.3,0.2,0.6,0.5,0.6h8.5c0.3,0,0.5-0.3,0.5-0.6s-0.2-0.6-0.5-0.6H9.7
		C9.4,37.9,9.1,38.1,9.1,38.4z"/>
	<path id="XMLID_91_" class="st0" d="M39.6,10.5H27.3v-4c0-2.8-2.2-5.1-4.8-5.1H5.4c-2.7,0-4.8,2.3-4.8,5.1v4.6
		c0,0.3,0.2,0.6,0.5,0.6s0.5-0.3,0.5-0.6V6.6c0-2.2,1.7-4,3.7-4h17.1c2.1,0,3.7,1.8,3.7,4v4H25v-4c0-1.6-1.2-2.8-2.7-2.8h-1.1
		c-0.7,0-1.5,0.2-2.2,0.5l-0.3,0.2c-0.5,0.3-1.1,0.4-1.7,0.4h-6.5c-0.6,0-1.2-0.1-1.7-0.4L8.7,4.2C8,3.9,7.3,3.7,6.5,3.7H5.4
		C3.9,3.7,2.7,5,2.7,6.6v31.9c0,1.6,1.2,2.8,2.7,2.8h17.1c1.5,0,2.7-1.3,2.7-2.8v-6.3h1.1v6.3c0,2.2-1.7,4-3.7,4H5.4
		c-2.1,0-3.7-1.8-3.7-4V13.4c0-0.3-0.2-0.6-0.5-0.6s-0.5,0.3-0.5,0.6v25.1c0,2.8,2.2,5.1,4.8,5.1h17.1c2.7,0,4.8-2.3,4.8-5.1v-6.3
		h12.3c2.7,0,4.8-2.3,4.8-5.1V15.7C44.4,12.8,42.2,10.5,39.6,10.5z M39.6,31H22.5c-2.1,0-3.7-1.8-3.7-4c0-0.3-0.2-0.6-0.5-0.6
		s-0.5,0.3-0.5,0.6c0,2.8,2.2,5.1,4.8,5.1h1.6v6.3c0,0.9-0.7,1.7-1.6,1.7H5.4c-0.9,0-1.6-0.8-1.6-1.7V6.6c0-0.9,0.7-1.7,1.6-1.7h1.1
		c0.6,0,1.2,0.1,1.7,0.4l0.3,0.2C9.2,5.8,9.9,6,10.7,6h6.5c0.7,0,1.5-0.2,2.2-0.5l0.3-0.2c0.5-0.3,1.1-0.4,1.7-0.4h1.1
		c0.9,0,1.6,0.8,1.6,1.7v4h-1.6c-2.7,0-4.8,2.3-4.8,5.1v9.1c0,0.3,0.2,0.6,0.5,0.6s0.5-0.3,0.5-0.6v-8.5h18.7c0.3,0,0.5-0.3,0.5-0.6
		s-0.2-0.6-0.5-0.6H18.8c0.3-1.9,1.8-3.4,3.7-3.4h17.1c1.9,0,3.4,1.5,3.7,3.4h-3.7c-0.3,0-0.5,0.3-0.5,0.6c0,0.3,0.2,0.6,0.5,0.6
		h3.7v10.8C43.3,29.3,41.7,31,39.6,31z"/>
	<path id="XMLID_88_" class="st0" d="M25.7,17.4h-2.1c-0.9,0-1.6,0.8-1.6,1.7v2.3c0,0.9,0.7,1.7,1.6,1.7h2.1c0.9,0,1.6-0.8,1.6-1.7
		v-2.3C27.3,18.1,26.6,17.4,25.7,17.4z M26.2,21.4c0,0.3-0.2,0.6-0.5,0.6h-2.1c-0.3,0-0.5-0.3-0.5-0.6v-2.3c0-0.3,0.2-0.6,0.5-0.6
		h2.1c0.3,0,0.5,0.3,0.5,0.6V21.4z"/>
	<path id="XMLID_85_" class="st0" d="M32.1,17.4H30c-0.9,0-1.6,0.8-1.6,1.7v2.3c0,0.9,0.7,1.7,1.6,1.7h2.1c0.9,0,1.6-0.8,1.6-1.7
		v-2.3C33.7,18.1,33,17.4,32.1,17.4z M32.6,21.4c0,0.3-0.2,0.6-0.5,0.6H30c-0.3,0-0.5-0.3-0.5-0.6v-2.3c0-0.3,0.2-0.6,0.5-0.6h2.1
		c0.3,0,0.5,0.3,0.5,0.6V21.4z"/>
	<path id="XMLID_82_" class="st0" d="M25.7,24.2h-2.1c-0.9,0-1.6,0.8-1.6,1.7v2.3c0,0.9,0.7,1.7,1.6,1.7h2.1c0.9,0,1.6-0.8,1.6-1.7
		v-2.3C27.3,25,26.6,24.2,25.7,24.2z M26.2,28.2c0,0.3-0.2,0.6-0.5,0.6h-2.1c-0.3,0-0.5-0.3-0.5-0.6v-2.3c0-0.3,0.2-0.6,0.5-0.6h2.1
		c0.3,0,0.5,0.3,0.5,0.6V28.2z"/>
	<path id="XMLID_79_" class="st0" d="M32.1,24.2H30c-0.9,0-1.6,0.8-1.6,1.7v2.3c0,0.9,0.7,1.7,1.6,1.7h2.1c0.9,0,1.6-0.8,1.6-1.7
		v-2.3C33.7,25,33,24.2,32.1,24.2z M32.6,28.2c0,0.3-0.2,0.6-0.5,0.6H30c-0.3,0-0.5-0.3-0.5-0.6v-2.3c0-0.3,0.2-0.6,0.5-0.6h2.1
		c0.3,0,0.5,0.3,0.5,0.6V28.2z"/>
	<path id="XMLID_76_" class="st0" d="M36.4,23.1h2.1c0.9,0,1.6-0.8,1.6-1.7v-2.3c0-0.9-0.7-1.7-1.6-1.7h-2.1c-0.9,0-1.6,0.8-1.6,1.7
		v2.3C34.8,22.3,35.5,23.1,36.4,23.1z M35.9,19.1c0-0.3,0.2-0.6,0.5-0.6h2.1c0.3,0,0.5,0.3,0.5,0.6v2.3c0,0.3-0.2,0.6-0.5,0.6h-2.1
		c-0.3,0-0.5-0.3-0.5-0.6V19.1z"/>
	<path id="XMLID_72_" class="st0" d="M41.4,22.1l-2.1,2.3c-0.2-0.1-0.4-0.2-0.7-0.2h-2.1c-0.2,0-0.5,0.1-0.7,0.2l0,0
		c-0.2-0.2-0.5-0.2-0.8,0c-0.2,0.2-0.2,0.6,0,0.8l0,0c-0.1,0.2-0.2,0.5-0.2,0.7v2.3c0,0.9,0.7,1.7,1.6,1.7h2.1
		c0.9,0,1.6-0.8,1.6-1.7v-2.3c0-0.3-0.1-0.5-0.2-0.7l2.1-2.3c0.2-0.2,0.2-0.6,0-0.8C41.9,21.9,41.6,21.9,41.4,22.1z M38.3,25.3
		l-0.5,0.5c-0.2,0.2-0.5,0.2-0.8,0l-0.5-0.5H38.3z M39.1,28.2c0,0.3-0.2,0.6-0.5,0.6h-2.1c-0.3,0-0.5-0.3-0.5-0.6v-2l0.5,0.5
		c0.3,0.3,0.7,0.5,1.1,0.5c0.4,0,0.8-0.2,1.1-0.5l0.5-0.5L39.1,28.2L39.1,28.2z"/>
	<path id="XMLID_46_" class="st0" d="M5.4,18.5H14c0.3,0,0.5-0.3,0.5-0.6s-0.2-0.6-0.5-0.6H5.4c-0.3,0-0.5,0.3-0.5,0.6
		S5.1,18.5,5.4,18.5z"/>
	<path id="XMLID_45_" class="st0" d="M5.4,11.7H14c0.3,0,0.5-0.3,0.5-0.6s-0.2-0.6-0.5-0.6H5.4c-0.3,0-0.5,0.3-0.5,0.6
		S5.1,11.7,5.4,11.7z"/>
	<path id="XMLID_44_" class="st0" d="M5.4,23.1h4.3c0.3,0,0.5-0.3,0.5-0.6s-0.2-0.6-0.5-0.6H5.4c-0.3,0-0.5,0.3-0.5,0.6
		S5.1,23.1,5.4,23.1z"/>
	<path id="XMLID_66_" class="st0" d="M14.5,30.5v-2.3c0-0.9-0.7-1.7-1.6-1.7H6.5c-0.9,0-1.6,0.8-1.6,1.7v2.3c0,0.9,0.7,1.7,1.6,1.7
		h6.4C13.8,32.2,14.5,31.4,14.5,30.5z M5.9,30.5v-2.3c0-0.3,0.2-0.6,0.5-0.6h6.4c0.3,0,0.5,0.3,0.5,0.6v2.3c0,0.3-0.2,0.6-0.5,0.6
		H6.5C6.2,31,5.9,30.8,5.9,30.5z"/>
</g>
</svg>
