<?xml version="1.0" encoding="utf-8"?>
<!-- Generator: Adobe Illustrator 26.0.1, SVG Export Plug-In . SVG Version: 6.00 Build 0)  -->
<svg version="1.1" id="Capa_1" xmlns="http://www.w3.org/2000/svg" xmlns:xlink="http://www.w3.org/1999/xlink" x="0px" y="0px"
	 viewBox="0 0 45 45" style="enable-background:new 0 0 45 45;" xml:space="preserve">
<style type="text/css">
	.st0{fill:#6759F9;}
</style>
<g id="XMLID_40_">
	<path id="XMLID_64_" class="st0" d="M7.8,24c-1.3,0-2.4,1.1-2.4,2.4v13.7c0,1.3,1.1,2.4,2.4,2.4h7.6c1.3,0,2.4-1.1,2.4-2.4V26.4
		c0-1.3-1.1-2.4-2.4-2.4H7.8z M15.4,41.6H7.8c-0.8,0-1.4-0.7-1.4-1.5c0-3,2.3-5.4,5.2-5.4s5.2,2.4,5.2,5.4
		C16.9,40.9,16.2,41.6,15.4,41.6z M9.3,31.3c0-1.3,1.1-2.4,2.4-2.4S14,30,14,31.3s-1.1,2.4-2.4,2.4S9.3,32.7,9.3,31.3z M16.9,26.4
		v10.3c-0.8-1.3-1.9-2.2-3.3-2.7c0.8-0.6,1.4-1.6,1.4-2.8c0-1.9-1.5-3.4-3.3-3.4s-3.3,1.5-3.3,3.4c0,1.2,0.6,2.2,1.4,2.8
		c-1.4,0.5-2.5,1.4-3.3,2.7V26.4c0-0.8,0.6-1.5,1.4-1.5h7.6C16.2,24.9,16.9,25.6,16.9,26.4z"/>
	<path id="XMLID_34_" class="st0" d="M40.1,4.4h-3.4c-0.2-2.2-2-3.9-4.2-3.9H6c-2.4,0-4.3,2-4.3,4.4v35.2c0,2.4,1.9,4.4,4.3,4.4
		h24.7c0.3,0,0.5-0.2,0.5-0.5s-0.2-0.5-0.5-0.5H6c-1.8,0-3.3-1.5-3.3-3.4V23H6c0.3,0,0.5-0.2,0.5-0.5S6.2,22,6,22H2.6V4.9
		C2.6,3,4.1,1.5,6,1.5h26.6c1.7,0,3,1.3,3.3,2.9h-9c-0.3,0-0.5,0.2-0.5,0.5s0.2,0.5,0.5,0.5h13.3c1.8,0,3.3,1.5,3.3,3.4v27.4
		c0,1.9-1.5,3.4-3.3,3.4H24.9c-1.8,0-3.3-1.5-3.3-3.4V8.8c0-1.9,1.5-3.4,3.3-3.4c0.3,0,0.5-0.2,0.5-0.5s-0.2-0.5-0.5-0.5
		c-2.4,0-4.3,2-4.3,4.4v5.4H6c-0.3,0-0.5,0.2-0.5,0.5s0.2,0.5,0.5,0.5h14.7V22H7.8c-0.3,0-0.5,0.2-0.5,0.5S7.6,23,7.8,23h12.8v13.2
		c0,2.4,1.9,4.4,4.3,4.4h10.9c-0.2,1.7-1.6,2.9-3.3,2.9c-0.3,0-0.5,0.2-0.5,0.5s0.2,0.5,0.5,0.5c2.2,0,4-1.7,4.2-3.9h3.4
		c2.4,0,4.3-2,4.3-4.4V8.8C44.4,6.4,42.4,4.4,40.1,4.4z"/>
	<path id="XMLID_33_" class="st0" d="M40.6,34.2c0-0.3-0.2-0.5-0.5-0.5H24.9c-0.3,0-0.5,0.2-0.5,0.5s0.2,0.5,0.5,0.5h15.2
		C40.4,34.7,40.6,34.5,40.6,34.2z"/>
	<path id="XMLID_32_" class="st0" d="M26.8,35.7c-0.3,0-0.5,0.2-0.5,0.5s0.2,0.5,0.5,0.5h11.4c0.3,0,0.5-0.2,0.5-0.5
		s-0.2-0.5-0.5-0.5H26.8z"/>
	<path id="XMLID_31_" class="st0" d="M6,7.3h13.3c0.3,0,0.5-0.2,0.5-0.5s-0.2-0.5-0.5-0.5H6c-0.3,0-0.5,0.2-0.5,0.5S5.7,7.3,6,7.3z"
		/>
	<path id="XMLID_30_" class="st0" d="M6,11.2h9.5c0.3,0,0.5-0.2,0.5-0.5s-0.2-0.5-0.5-0.5H6c-0.3,0-0.5,0.2-0.5,0.5S5.7,11.2,6,11.2
		z"/>
	<path id="XMLID_41_" class="st0" d="M34.4,8.5c-0.6-0.1-1.2-0.2-1.9-0.2c-0.6,0-1.3,0.1-1.9,0.2l0,0l0,0c-4.6,0.9-8.1,5.1-8.1,10.1
		s3.5,9.2,8,10.1l0,0l0,0c0.6,0.1,1.2,0.2,1.9,0.2c0.6,0,1.3-0.1,1.9-0.2l0,0l0,0c4.6-0.9,8-5.1,8-10.1C42.5,13.6,39,9.4,34.4,8.5
		L34.4,8.5L34.4,8.5z M30.6,9.5c0.2,0.1,0.5,0.1,0.7,0.2c-1.3,0.8-2.4,1.9-3.3,3.2c-0.6-0.3-1.1-0.7-1.6-1.2
		C27.6,10.6,29,9.8,30.6,9.5z M25.8,12.4c0.5,0.5,1.1,0.9,1.7,1.3c-0.7,1.3-1.1,2.8-1.2,4.4h-2.8C23.7,15.9,24.5,13.9,25.8,12.4z
		 M25.8,24.7c-1.3-1.5-2.2-3.5-2.3-5.7h2.8c0.1,1.6,0.5,3,1.2,4.4C26.9,23.8,26.3,24.2,25.8,24.7z M30.6,27.7
		c-1.6-0.3-3-1.1-4.2-2.2c0.5-0.5,1-0.9,1.6-1.2c0.8,1.3,1.9,2.4,3.3,3.2C31.1,27.5,30.9,27.6,30.6,27.7z M32,26.7
		c-1.3-0.7-2.3-1.7-3.2-3c1-0.4,2-0.7,3.2-0.7V26.7z M32,22.1c-1.3,0.1-2.5,0.4-3.7,0.9c-0.6-1.2-1-2.5-1-3.9H32V22.1z M32,18.1
		h-4.7c0.1-1.4,0.4-2.7,1-3.9c1.1,0.5,2.4,0.8,3.7,0.9V18.1z M32,14.1c-1.1-0.1-2.2-0.3-3.2-0.8c0.8-1.2,1.9-2.3,3.2-3V14.1z
		 M33,10.4c1.3,0.7,2.3,1.7,3.2,3c-1,0.4-2,0.7-3.2,0.7V10.4z M33,15.1c1.3-0.1,2.5-0.4,3.7-0.9c0.6,1.2,1,2.5,1,3.9H33V15.1z
		 M33,19.1h4.7c-0.1,1.4-0.4,2.7-1,3.9c-1.1-0.5-2.4-0.8-3.7-0.9V19.1z M33,23c1.1,0.1,2.2,0.3,3.2,0.8c-0.8,1.2-1.9,2.2-3.2,3V23z
		 M34.4,27.7c-0.2-0.1-0.5-0.1-0.7-0.2c1.3-0.8,2.4-1.9,3.3-3.2c0.6,0.3,1.1,0.7,1.6,1.2C37.4,26.5,36,27.3,34.4,27.7z M39.2,24.7
		c-0.5-0.5-1.1-0.9-1.7-1.3c0.7-1.3,1.1-2.8,1.2-4.4h2.8C41.4,21.3,40.5,23.2,39.2,24.7z M39.2,12.4c1.3,1.5,2.2,3.5,2.3,5.7h-2.8
		c-0.1-1.6-0.5-3-1.2-4.4C38.1,13.4,38.7,12.9,39.2,12.4z M38.5,11.7c-0.5,0.5-1,0.9-1.6,1.2c-0.8-1.3-2-2.4-3.3-3.2
		c0.2-0.1,0.5-0.2,0.7-0.2C36,9.8,37.4,10.6,38.5,11.7z"/>
</g>
</svg>
