<?xml version="1.0" encoding="utf-8"?>
<!-- Generator: Adobe Illustrator 26.0.1, SVG Export Plug-In . SVG Version: 6.00 Build 0)  -->
<svg version="1.1" id="Capa_1" xmlns="http://www.w3.org/2000/svg" xmlns:xlink="http://www.w3.org/1999/xlink" x="0px" y="0px"
	 viewBox="0 0 45 45" style="enable-background:new 0 0 45 45;" xml:space="preserve">
<style type="text/css">
	.st0{fill:#6759F9;}
</style>
<g id="XMLID_81_">
	<path id="XMLID_96_" class="st0" d="M40.1,7H12.6c-2.4,0-4.4,1.7-4.4,3.8v6.4H4.8c-2.4,0-4.4,1.7-4.4,3.8c0,0.2,0.2,0.4,0.5,0.4
		s0.5-0.2,0.5-0.4c0-1.6,1.5-3,3.4-3h27.4c1.9,0,3.4,1.3,3.4,3v13.6c0,1.6-1.5,3-3.4,3H4.8c-1.9,0-3.4-1.3-3.4-3V22.7
		c0-0.2-0.2-0.4-0.5-0.4s-0.5,0.2-0.5,0.4v11.9c0,2.1,2,3.8,4.4,3.8h27.4c2.4,0,4.4-1.7,4.4-3.8v-6.4H40c2.4,0,4.4-1.7,4.4-3.8v-5.1
		c0-0.2-0.2-0.4-0.5-0.4s-0.5,0.2-0.5,0.4v5.1c0,1.6-1.5,3-3.4,3h-3.4v-0.8h1.5c1.4,0,2.5-0.9,2.5-2.1v-1.7c0-1.2-1.1-2.1-2.5-2.1
		h-1.5c-0.2-1.9-2.1-3.4-4.4-3.4h-23v-0.8h34.3v1.3c0,0.2,0.2,0.4,0.5,0.4s0.5-0.2,0.5-0.4V11C44.5,8.7,42.5,7,40.1,7z M39.6,22.7
		v1.7c0,0.7-0.7,1.3-1.5,1.3h-1.5v-4.2h1.5C38.9,21.4,39.6,22,39.6,22.7z M9.2,15.5V13h9.3c0.3,0,0.5-0.2,0.5-0.4s-0.2-0.4-0.5-0.4
		H9.2v-1.3c0-1.6,1.5-3,3.4-3H40c1.9,0,3.4,1.3,3.4,3v1.3h-23c-0.3,0-0.5,0.2-0.5,0.4s0.2,0.4,0.5,0.4h23v2.5H9.2z"/>
	<path id="XMLID_90_" class="st0" d="M11.7,22.3H5.8c-0.8,0-1.5,0.6-1.5,1.3v1.7c0,0.7,0.7,1.3,1.5,1.3h5.9c0.8,0,1.5-0.6,1.5-1.3
		v-1.7C13.1,22.8,12.5,22.3,11.7,22.3z M12.2,23.5v0.4h-3v-0.8h2.5C11.9,23.1,12.2,23.3,12.2,23.5z M5.3,25.2v-1.7
		c0-0.2,0.2-0.4,0.5-0.4h2.5v2.5H5.8C5.5,25.6,5.3,25.5,5.3,25.2z M11.7,25.6H9.2v-0.8h2.9v0.4C12.2,25.5,11.9,25.6,11.7,25.6z"/>
	<path id="XMLID_69_" class="st0" d="M4.8,31.6h3.9c0.3,0,0.5-0.2,0.5-0.4c0-0.2-0.2-0.4-0.5-0.4H4.8c-0.3,0-0.5,0.2-0.5,0.4
		S4.5,31.6,4.8,31.6z"/>
	<path id="XMLID_68_" class="st0" d="M12.2,31.2c0,0.2,0.2,0.4,0.5,0.4h3.9c0.3,0,0.5-0.2,0.5-0.4c0-0.2-0.2-0.4-0.5-0.4h-3.9
		C12.4,30.7,12.2,30.9,12.2,31.2z"/>
	<path id="XMLID_67_" class="st0" d="M24.4,30.7h-3.9c-0.3,0-0.5,0.2-0.5,0.4c0,0.2,0.2,0.4,0.5,0.4h3.9c0.3,0,0.5-0.2,0.5-0.4
		C24.9,30.9,24.7,30.7,24.4,30.7z"/>
	<path id="XMLID_65_" class="st0" d="M32.2,31.6c0.3,0,0.5-0.2,0.5-0.4c0-0.2-0.2-0.4-0.5-0.4h-3.9c-0.3,0-0.5,0.2-0.5,0.4
		c0,0.2,0.2,0.4,0.5,0.4H32.2z"/>
	<path id="XMLID_63_" class="st0" d="M23.9,34.5c0,0.2,0.2,0.4,0.5,0.4h7.8c0.3,0,0.5-0.2,0.5-0.4s-0.2-0.4-0.5-0.4h-7.8
		C24.1,34.1,23.9,34.3,23.9,34.5z"/>
</g>
</svg>
