<svg version="1.1" id="Capa_1" xmlns="http://www.w3.org/2000/svg" x="0" y="0" viewBox="0 0 48 32" xml:space="preserve"><style>.st1{fill:#2e68b1}</style><g id="americanexpress-color-large_1_"><path d="M-317-192h40c2.2 0 4 1.8 4 4v24c0 2.2-1.8 4-4 4h-40c-2.2 0-4-1.8-4-4v-24c0-2.2 1.8-4 4-4z" fill="#fff" transform="translate(321 192)"/><path class="st1" d="M-312.1-174.1v8.2h8.3l.9-1.2.8 1.2h5.1v-1.8h.6c.5 0 1-.1 1.5-.2v2.1h3.4v-1.5l1.2 1.5h15.6c.6 0 1.3-.2 1.8-.5v3.4c-.5 1.8-2.1 3-3.9 3H-317c-2.2 0-4-1.8-4-4v-12.6h2.3l.5-1.2h1.1l.5 1.2h18.3v-1.5l1.2 1.5h4.8v-.7c.7.5 1.6.8 2.4.7h2.9l.5-1.2h1.1l.5 1.2h4.9v-1.6l1 1.6h3.4v-8.2h-3.6v1.7l-1.1-1.7h-3.1v2.1l-1-2.1h-5.3c-.9 0-1.8.3-2.5.8v-.8H-310l-.6 1.8-.6-1.8h-4v2.1l-.9-2.1h-3.3l-1.6 3.8v-7c0-2.2 1.8-4 4-4h40.1c1.8 0 3.5 1.2 3.9 3v14.9h-29.1l-.9 1.2-.8-1.2h-8.3z" transform="translate(321 192)"/><path class="st1" d="M-306.3-171.6v-1.2h-4.5v5.6h4.5v-1.2h-3.2v-1h3.1v-1.2h-3.1v-1h3.2zm4.1 1.6l2.3-2.8h-1.7l-1.4 1.7-1.4-1.8h-1.7l2.3 2.8-2.2 2.8h1.6l1.4-1.8 1.4 1.8h1.7l-2.3-2.7zm5.6-2.8h-3.1v5.6h1.4v-1.9h1.7c.5 0 1-.1 1.4-.5.4-.4.6-.9.6-1.4 0-.5-.2-1-.6-1.4s-.9-.5-1.4-.4zm-.1 2.6h-1.6v-1.4h1.6c.4 0 .7.3.7.7 0 .3-.3.6-.7.7zm6.3 1c1-.1 1.7-1 1.6-2-.1-1-1-1.7-2-1.6h-3.1v5.6h1.4v-2h.6l1.7 2h1.7l-1.9-2zm-.5-1.1h-1.6v-1.3h1.6c.2 0 .4 0 .5.2.1.1.2.3.2.5s-.1.4-.2.5c-.2 0-.4 0-.5.1zm7.3-1.3v-1.2h-4.6v5.6h4.6v-1.2h-3.2v-1h3.1v-1.2h-3.1v-1h3.2zm3.7 1h-1.3c-.2 0-.4 0-.5-.2-.1-.2-.1-.4 0-.6.1-.2.3-.3.5-.2h2.4l.5-1.2h-2.9c-.5-.1-1 .1-1.4.4-.4.3-.6.8-.6 1.3s.1.9.5 1.2c.3.3.8.5 1.3.4h1.3c.2 0 .4 0 .5.2.1.2.1.4 0 .6-.1.2-.3.3-.5.2h-2.9v1.2h2.9c.5 0 1-.1 1.4-.5.4-.4.6-.8.5-1.3 0-.5-.2-.9-.5-1.2-.2-.2-.7-.4-1.2-.3zm3.9-1h2.4l.5-1.2h-2.9c-.5-.1-1 .1-1.4.4-.4.3-.6.8-.6 1.3s.1.9.5 1.2.8.5 1.3.4h1.3c.2 0 .4 0 .5.2.1.2.1.4 0 .6-.1.2-.3.3-.5.2h-2.9v1.2h2.9c.8.1 1.6-.4 1.8-1.2v-1.3c-.3-.6-.9-1-1.6-.9h-1.4c-.2 0-.4 0-.5-.2-.1-.2-.1-.4 0-.6.2-.1.4-.2.6-.1zm-40.8-11.9h-1.8l-2.5 5.6h1.5l.5-1.1h2.6l.5 1.2h1.5l-2.3-5.7zm-1.8 3.4l.5-1.3.4-.9.4.9.5 1.3h-1.8zm9.3-3.4l-1.1 3.3-.2.6-.2-.6-1.1-3.3h-2.2v5.6h1.3v-4.6l.3.9 1.3 3.7h1.2l1.3-3.7.3-.9v4.6h1.3v-5.6h-2.2zm7.8 1.2v-1.2h-4.5v5.6h4.5v-1.2h-3.2v-1h3.1v-1.2h-3.1v-1h3.2zm4.4 2.4c.9-.1 1.6-.9 1.5-1.8 0-.5-.2-1-.6-1.3-.4-.3-.9-.5-1.4-.4h-3.1v5.6h1.4v-2h.6l1.7 2h1.7l-1.8-2.1zm-.5-1.2h-1.6v-1.2h1.6c.2 0 .4 0 .5.2.1.1.2.3.2.5s-.1.4-.2.5c-.2 0-.4.1-.5 0zm2.7-2.4v5.6h1.4v-5.6h-1.4zm5 1.2h1.5v-1.2h-1.6c-.7 0-1.5.2-2 .8s-.8 1.3-.7 2v.1c-.1.7.2 1.5.7 2 .5.5 1.2.8 2 .8h.1l.5-1.2h-.4c-.4 0-.8-.1-1.1-.4-.3-.3-.4-.7-.4-1.1v-.1c0-.4.1-.8.4-1.1.2-.4.6-.6 1-.6zm4.8-1.2h-1.8l-2.4 5.6h1.5l.5-1.1h2.7l.5 1.2h1.5l-2.5-5.7zm-1.9 3.4l.5-1.3.4-.9.3.9.5 1.3h-1.7zm8.6-3.4v3.7l-.4-.6-2-3h-1.7v5.6h1.3v-3.9l.4.6 2.1 3.2h1.6v-5.6h-1.3z" transform="translate(321 192)"/></g></svg>