<svg version="1.1" id="Capa_1" xmlns="http://www.w3.org/2000/svg" x="0" y="0" viewBox="0 0 48 32" xml:space="preserve"><g id="maestro-color-large_1_"><path d="M-429-192h40c2.2 0 4 1.8 4 4v24c0 2.2-1.8 4-4 4h-40c-2.2 0-4-1.8-4-4v-24c0-2.2 1.8-4 4-4z" transform="translate(433 192)" fill="#fff"/><path fill="#7971b3" d="M-418.1-187.3h10.2v16.7h-10.2z" transform="translate(437 195)"/><path d="M-417-179c0-3.2 1.5-6.3 4-8.3-4.3-3.4-10.6-2.9-14.4 1.1-3.8 4.1-3.8 10.3 0 14.4s10 4.6 14.4 1.1c-2.5-2-4-5.1-4-8.3z" fill="#e31019" transform="translate(437 195)"/><path d="M-396.9-172.4v-.3h.1v-.1h-.4v.1h.1l.2.3zm.7 0v-.4h-.1l-.1.3-.1-.3h-.1v.4h.1v-.3l.1.3h.1l.1-.3v.3zm.4-6.6c0 4.1-2.3 7.8-6 9.5-3.7 1.8-8 1.3-11.2-1.2 4.6-3.6 5.4-10.3 1.8-14.9-.5-.7-1.1-1.3-1.8-1.8 3.2-2.5 7.5-3 11.2-1.2 3.6 1.8 6 5.5 6 9.6z" transform="translate(437 195)" fill="#24a0db"/></g></svg>