<svg version="1.1" id="Capa_1" xmlns="http://www.w3.org/2000/svg" x="0" y="0" viewBox="0 0 48 32" xml:space="preserve"><g id="visa-color_large"><path d="M-92-192h40c2.2 0 4 1.8 4 4v24c0 2.2-1.8 4-4 4h-40c-2.2 0-4-1.8-4-4v-24c0-2.2 1.8-4 4-4z" fill="#2b2964" transform="translate(96 192)"/><path d="M-72.1-180.6l-2 9.2h-2.4l2-9.2h2.4zm10 6l1.3-3.5.7 3.5h-2zm2.7 3.3h2.2l-1.9-9.2h-2c-.4 0-.8.3-1 .7l-3.6 8.6h2.5l.5-1.4h3l.3 1.3zm-6.3-3c0-2.5-3.3-2.7-3.3-3.7 0-.3.3-.7 1-.8.8-.1 1.6.1 2.4.4l.4-2c-.7-.3-1.5-.4-2.2-.4-2.4 0-4 1.3-4 3.1 0 1.3 1.2 2.1 2.1 2.5s1.2.8 1.2 1.1c0 .6-.7.9-1.4.9-.9 0-1.7-.2-2.4-.6l-.4 2c.8.3 1.8.5 2.7.5 2.3.1 4-1.2 3.9-3m-9.8-6.3l-3.9 9.3H-82l-1.9-7.4c0-.4-.3-.7-.6-.8-.8-.4-1.5-.6-2.4-.8l.1-.3h4.1c.6 0 1 .4 1.1.9l1 5.3 2.5-6.3h2.6z" fill="#fff" transform="translate(96 192)"/></g></svg>